<svg id="_0060_mind_map" data-name="0060_mind_map" xmlns="http://www.w3.org/2000/svg" viewBox="0 0 500 500" data-imageid="mind-map-93" imageName="Mind Map" class="illustrations_image" style="width: 215px;"><defs><style>.cls-1_mind-map-93{fill:#fff;}.cls-2_mind-map-93{fill:#231f20;}.cls-3_mind-map-93{fill:#68e1fd;}.cls-4_mind-map-93{fill:#d1d3d4;}</style></defs><g id="Mindmap_mind-map-93"><rect class="cls-1_mind-map-93" x="79.32" y="94.17" width="211.06" height="301.28" transform="translate(429.66 59.96) rotate(90)"/><path class="cls-2_mind-map-93" d="M335.49,351H34.21a.67.67,0,0,1-.66-.67v-211a.66.66,0,0,1,.66-.66H335.49a.65.65,0,0,1,.66.66V350.33A.66.66,0,0,1,335.49,351ZM34.87,349.67h300V139.94h-300Z"/><rect class="cls-1_mind-map-93" x="175.36" y="-20.85" width="18.97" height="301.28" transform="translate(55.06 314.64) rotate(-90)"/><path class="cls-2_mind-map-93" d="M335.49,139.94H34.21a.67.67,0,0,1-.66-.66v-19a.67.67,0,0,1,.66-.66H335.49a.66.66,0,0,1,.66.66v19A.66.66,0,0,1,335.49,139.94ZM34.87,138.62h300V121h-300Z"/><path class="cls-2_mind-map-93" d="M147.23,207.65a.68.68,0,0,1-.31-.08l-39.46-20.64a.66.66,0,1,1,.62-1.17l39.45,20.64a.66.66,0,0,1-.3,1.25Z"/><path class="cls-2_mind-map-93" d="M102.77,312.84a.66.66,0,0,1-.4-1.19l44.46-33.75a.66.66,0,0,1,.92.13.66.66,0,0,1-.12.93l-44.45,33.75A.69.69,0,0,1,102.77,312.84Z"/><path class="cls-2_mind-map-93" d="M274.59,300.18a.59.59,0,0,1-.29-.07l-44.22-21.72a.66.66,0,0,1,.58-1.19l44.22,21.72a.66.66,0,0,1-.29,1.26Z"/><path class="cls-2_mind-map-93" d="M211.66,207.62a.48.48,0,0,1-.44-.27c-.46-.65.22-1.19,1.74-2.38a.67.67,0,0,1,.93.11l.06.11c6.89-3.93,27.57-17.1,41.82-26.32a.67.67,0,0,1,.92.2.67.67,0,0,1-.2.92c-.11.07-11.08,7.16-22,14.07C216.37,205.55,212.67,207.62,211.66,207.62Z"/><path class="cls-2_mind-map-93" d="M86.67,227.5a.67.67,0,0,1-.67-.66v-22.9a.67.67,0,0,1,1.33,0v22.9A.67.67,0,0,1,86.67,227.5Z"/><rect class="cls-1_mind-map-93" x="61.73" y="148.45" width="44.74" height="66.24" transform="translate(265.67 97.47) rotate(90)"/><path class="cls-2_mind-map-93" d="M117.22,204.6H51a.65.65,0,0,1-.66-.66V159.2a.66.66,0,0,1,.66-.66h66.24a.66.66,0,0,1,.66.66v44.74A.65.65,0,0,1,117.22,204.6Zm-65.58-1.32h64.92V159.86H51.64Z"/><rect class="cls-1_mind-map-93" x="59.44" y="285.04" width="37.39" height="49.27" transform="translate(387.81 231.53) rotate(90)"/><path class="cls-2_mind-map-93" d="M102.77,329H53.5a.67.67,0,0,1-.66-.66V291a.67.67,0,0,1,.66-.67h49.27a.67.67,0,0,1,.67.67v37.39A.67.67,0,0,1,102.77,329Zm-48.6-1.33h47.94V291.64H54.17Z"/><rect class="cls-1_mind-map-93" x="179.47" y="295.64" width="27.3" height="35.97" transform="translate(506.75 120.5) rotate(90)"/><path class="cls-2_mind-map-93" d="M211.11,327.94h-36a.67.67,0,0,1-.67-.66V300a.67.67,0,0,1,.67-.67h36a.67.67,0,0,1,.66.67v27.3A.67.67,0,0,1,211.11,327.94Zm-35.31-1.33h34.65v-26H175.8Z"/><rect class="cls-1_mind-map-93" x="258.16" y="153.41" width="52.33" height="67.15" transform="translate(471.31 -97.34) rotate(90)"/><path class="cls-2_mind-map-93" d="M317.9,213.81H250.75a.66.66,0,0,1-.66-.66V160.82a.67.67,0,0,1,.66-.66H317.9a.66.66,0,0,1,.66.66v52.33A.65.65,0,0,1,317.9,213.81Zm-66.49-1.32h65.83v-51H251.41Z"/><rect class="cls-1_mind-map-93" x="258.47" y="269.84" width="43.44" height="46.98" transform="translate(573.52 13.13) rotate(90)"/><path class="cls-2_mind-map-93" d="M303.69,315.71h-47a.67.67,0,0,1-.67-.66V271.6a.67.67,0,0,1,.67-.66h47a.67.67,0,0,1,.66.66v43.45A.67.67,0,0,1,303.69,315.71Zm-46.32-1.32H303V272.27H257.37Z"/><rect class="cls-1_mind-map-93" x="76.58" y="223.26" width="22.49" height="29.63" transform="translate(325.9 150.26) rotate(90)"/><path class="cls-2_mind-map-93" d="M102.64,250H73a.67.67,0,0,1-.66-.67V226.84a.67.67,0,0,1,.66-.67h29.64a.67.67,0,0,1,.66.67v22.48A.67.67,0,0,1,102.64,250Zm-29-1.33H102V227.5H73.67Z"/><line class="cls-1_mind-map-93" x1="191.24" y1="299.52" x2="191.24" y2="279.88"/><path class="cls-2_mind-map-93" d="M191.23,300.18a.67.67,0,0,1-.66-.66V279.88a.67.67,0,0,1,1.33,0v19.64A.67.67,0,0,1,191.23,300.18Z"/><rect class="cls-3_mind-map-93 targetColor" x="143.02" y="198.71" width="82.51" height="92.2" transform="translate(429.08 60.53) rotate(90)" style="fill: rgb(0, 0, 0);"/><path class="cls-4_mind-map-93" d="M303.69,174.73H265.58a.66.66,0,0,1,0-1.32h38.11a.66.66,0,0,1,0,1.32Z"/><path class="cls-4_mind-map-93" d="M303.69,185.82H265.58a.66.66,0,0,1,0-1.32h38.11a.66.66,0,0,1,0,1.32Z"/><path class="cls-4_mind-map-93" d="M295.92,196.91H265.58a.67.67,0,0,1,0-1.33h30.34a.67.67,0,0,1,0,1.33Z"/><path class="cls-4_mind-map-93" d="M103.15,171.15H65.05a.67.67,0,0,1,0-1.33h38.1a.67.67,0,1,1,0,1.33Z"/><path class="cls-4_mind-map-93" d="M103.15,182.24H65.05a.67.67,0,0,1,0-1.33h38.1a.67.67,0,1,1,0,1.33Z"/><path class="cls-4_mind-map-93" d="M95.38,193.32H65.05a.66.66,0,0,1,0-1.32H95.38a.66.66,0,1,1,0,1.32Z"/><path class="cls-4_mind-map-93" d="M95.38,235.14H80.22a.67.67,0,1,1,0-1.33H95.38a.67.67,0,1,1,0,1.33Z"/><path class="cls-4_mind-map-93" d="M92.65,303.39H61.7a.67.67,0,1,1,0-1.33h31a.67.67,0,0,1,0,1.33Z"/><path class="cls-4_mind-map-93" d="M82.21,312.84H61.7a.66.66,0,1,1,0-1.32H82.21a.66.66,0,0,1,0,1.32Z"/><path class="cls-4_mind-map-93" d="M202.78,309.32H183.46a.66.66,0,1,1,0-1.32h19.32a.66.66,0,1,1,0,1.32Z"/><path class="cls-4_mind-map-93" d="M202.78,318.31H183.46a.67.67,0,0,1,0-1.33h19.32a.67.67,0,0,1,0,1.33Z"/><path class="cls-4_mind-map-93" d="M295.92,280.54H265.58a.66.66,0,0,1,0-1.32h30.34a.66.66,0,0,1,0,1.32Z"/><path class="cls-4_mind-map-93" d="M295.92,290.36H265.58a.66.66,0,0,1,0-1.32h30.34a.66.66,0,0,1,0,1.32Z"/><path class="cls-4_mind-map-93" d="M295.92,300.18H265.58a.66.66,0,0,1,0-1.32h30.34a.66.66,0,0,1,0,1.32Z"/><path class="cls-4_mind-map-93" d="M187,174.73H150.09a.66.66,0,1,1,0-1.32H187a.66.66,0,0,1,0,1.32Z"/><path class="cls-4_mind-map-93" d="M188.88,182.23H152a.66.66,0,0,1,0-1.32h36.93a.66.66,0,0,1,0,1.32Z"/><path class="cls-4_mind-map-93" d="M273.17,232.06h-19a.67.67,0,0,1,0-1.33h19a.67.67,0,0,1,0,1.33Z"/><path class="cls-4_mind-map-93" d="M273.17,240.47h-19a.66.66,0,0,1,0-1.32h19a.66.66,0,1,1,0,1.32Z"/><path class="cls-4_mind-map-93" d="M267.94,248.88h-13.8a.66.66,0,0,1,0-1.32h13.8a.66.66,0,1,1,0,1.32Z"/><path class="cls-4_mind-map-93" d="M117.22,264H95.38a.66.66,0,0,1,0-1.32h21.84a.66.66,0,0,1,0,1.32Z"/><path class="cls-4_mind-map-93" d="M112.79,269.45H92.65a.66.66,0,0,1,0-1.32h20.14a.66.66,0,1,1,0,1.32Z"/></g><g id="character_mind-map-93"><path class="cls-1_mind-map-93" d="M424.19,172.36A6.72,6.72,0,0,0,420,169.7c-1.69-.18-3.58,1-3.59,2.73-1.92-4.51-6.55-7.44-11.34-8.43s-9.78-.31-14.58.67S380.93,167,376,167.22A28.05,28.05,0,0,0,383.52,187a55.75,55.75,0,0,0,7.68,6.44l5.7,4.22c5.83,4.31,14.07,8.59,21.64,6.37,6.63-1.94,9.62-12.49,9.82-18.45A19.5,19.5,0,0,0,424.19,172.36Z"/><path class="cls-2_mind-map-93" d="M414.21,205.28c-6.55,0-13-3.66-17.7-7.11l-5.7-4.22a55.63,55.63,0,0,1-7.77-6.51,28.58,28.58,0,0,1-7.66-20.24.65.65,0,0,1,.63-.64,68.54,68.54,0,0,0,11-1.82c1.11-.24,2.21-.49,3.31-.71,4.49-.93,9.75-1.73,14.84-.68a16.57,16.57,0,0,1,11.09,7.38,3.85,3.85,0,0,1,.57-.65,4.31,4.31,0,0,1,3.21-1,7.26,7.26,0,0,1,4.63,2.9A20,20,0,0,1,429,185.58c-.22,6.73-3.57,17.1-10.29,19.07A16,16,0,0,1,414.21,205.28Zm-37.52-37.44A27.3,27.3,0,0,0,384,186.53a54.7,54.7,0,0,0,7.58,6.36l5.7,4.22c5.5,4.06,13.61,8.45,21.07,6.27,6-1.77,9.13-11.69,9.34-17.85a18.67,18.67,0,0,0-4-12.74h0a6,6,0,0,0-3.75-2.43,3,3,0,0,0-2.19.71,1.86,1.86,0,0,0-.67,1.36.66.66,0,0,1-.53.64.65.65,0,0,1-.74-.38c-1.67-3.92-5.83-7-10.87-8-4.85-1-9.95-.22-14.3.67l-3.29.71A72.21,72.21,0,0,1,376.69,167.84Z"/><path class="cls-3_mind-map-93 targetColor" d="M442.12,279.4l19.87-5c-.75-1.43-12.83-37.64-23.89-44.68-9.5-7.91-28.59-8.69-50.2-9.52a66.36,66.36,0,0,0-20.56,2c-25.21,7-42.91,42.71-42.91,42.71l24.82,4.91s-3.95,36.92-7.41,81.93c0,0,39.57,8.9,101.4,5.44C443.24,357.17,441.54,285.8,442.12,279.4Z" style="fill: rgb(0, 0, 0);"/><polygon class="cls-2_mind-map-93" points="382.52 236.33 362 347.62 396.81 356.07 411.02 231.4 382.52 236.33"/><path class="cls-2_mind-map-93" d="M396.81,356.73l-.16,0-34.81-8.45a.66.66,0,0,1-.49-.76l20.52-111.28a.65.65,0,0,1,.54-.53l28.49-4.94a.66.66,0,0,1,.77.72L397.46,356.14a.65.65,0,0,1-.28.47A.63.63,0,0,1,396.81,356.73Zm-34.05-9.6,33.48,8.12,14-123-27.17,4.71Z"/><polygon class="cls-1_mind-map-93" points="389.9 236.65 392.41 244.6 373.13 320.36 379.47 331.88 392.81 322.63 398.09 247.12 407.27 234.57 389.9 236.65"/><path class="cls-1_mind-map-93" d="M384.44,214.7l-3.83,16.11s3.29,10.87,14.22,10A21.85,21.85,0,0,0,411,231.4l4.7-29.7s-7.12-5.43-2.07-22a52.79,52.79,0,0,1-27.95-.64s-7.76,17.59-7.81,25.94S384.44,214.7,384.44,214.7Z"/><path class="cls-2_mind-map-93" d="M393.66,241.56C383.3,241.56,380,231.12,380,231a.82.82,0,0,1,0-.35l3.69-15.51c-1.77-.62-6.48-3-6.43-10.15.06-8.39,7.56-25.48,7.88-26.2a.67.67,0,0,1,.79-.37,52.42,52.42,0,0,0,27.56.65.66.66,0,0,1,.83.83c-4.83,15.84,1.78,21.22,1.85,21.27a.67.67,0,0,1,.25.63l-4.71,29.69a.54.54,0,0,1-.09.24,22.31,22.31,0,0,1-16.7,9.77C394.47,241.54,394.06,241.56,393.66,241.56ZM381.3,230.79c.46,1.37,3.81,10.13,13.48,9.4a21.28,21.28,0,0,0,15.6-9L415,202c-1.34-1.27-6.31-7.12-2.32-21.31a55,55,0,0,1-26.61-.78c-1.28,3-7.48,17.83-7.53,25.14-.05,7.68,5.77,9,6,9a.67.67,0,0,1,.51.8Z"/><path class="cls-1_mind-map-93" d="M409.64,200.18a7,7,0,0,1,2.93-3.29,12.06,12.06,0,0,1,4-1.25,4.89,4.89,0,0,1,2.28,0,4.16,4.16,0,0,1,1.41.78,5.39,5.39,0,0,1,2.1,3.08,6.38,6.38,0,0,1-.35,3,12.52,12.52,0,0,1-1.33,3.07,8.44,8.44,0,0,1-11.74,2.55"/><path class="cls-2_mind-map-93" d="M413.56,210.13a9.13,9.13,0,0,1-5-1.48.65.65,0,0,1-.19-.91.66.66,0,0,1,.91-.2,7.78,7.78,0,0,0,10.82-2.34,12.34,12.34,0,0,0,1.26-2.91,5.78,5.78,0,0,0,.33-2.71,4.82,4.82,0,0,0-1.86-2.67,3.43,3.43,0,0,0-1.18-.68,4.46,4.46,0,0,0-2,.06,11.65,11.65,0,0,0-3.78,1.17,6.29,6.29,0,0,0-2.65,3,.65.65,0,0,1-.87.35.67.67,0,0,1-.35-.87,7.72,7.72,0,0,1,3.21-3.61,13.2,13.2,0,0,1,4.2-1.33,5.62,5.62,0,0,1,2.58,0,5,5,0,0,1,1.64.9,6,6,0,0,1,2.34,3.47,7,7,0,0,1-.37,3.35,13,13,0,0,1-1.4,3.22,9.17,9.17,0,0,1-5.76,4A9.46,9.46,0,0,1,413.56,210.13Z"/><path class="cls-2_mind-map-93" d="M382.91,222.77A13.83,13.83,0,0,0,394.25,221c5.36-3.71,5.38-6.36,5.38-6.36s-8.14,2.88-14.81.37Z"/><path class="cls-2_mind-map-93" d="M386.75,224a13.75,13.75,0,0,1-4.05-.56.65.65,0,0,1-.43-.78l1.91-7.75a.68.68,0,0,1,.34-.42.65.65,0,0,1,.53,0c6.37,2.4,14.28-.35,14.36-.38a.67.67,0,0,1,.6.09.65.65,0,0,1,.28.54c0,.31-.18,3.11-5.66,6.91A13.71,13.71,0,0,1,386.75,224Zm-3-1.66a13.14,13.14,0,0,0,10.17-1.82c3-2.09,4.25-3.81,4.75-4.83-2.46.68-8.17,1.9-13.34.24Z"/><path class="cls-1_mind-map-93" d="M396,191.34s-7.1,7.08-6.08,8.76,4.84,1.47,4.84,1.47"/><path class="cls-2_mind-map-93" d="M394.29,202.24c-1.18,0-4-.18-4.93-1.79-1.12-1.85,3.4-6.8,6.19-9.58a.65.65,0,0,1,.93,0,.66.66,0,0,1,0,.94c-3.48,3.47-6.28,7.19-6,8,.65,1.08,3.34,1.18,4.24,1.14a.66.66,0,0,1,.07,1.32Z"/><ellipse class="cls-2_mind-map-93" cx="402.72" cy="192.07" rx="1.94" ry="1.38" transform="translate(166.99 570.9) rotate(-83.61)"/><ellipse class="cls-2_mind-map-93" cx="389.9" cy="189.59" rx="1.94" ry="1.38" transform="translate(60.43 471.41) rotate(-66.47)"/><path class="cls-2_mind-map-93" d="M401.37,210.5a.67.67,0,0,1-.46-.18c-4.23-4.06-15.71-6.57-15.82-6.6a.65.65,0,0,1-.51-.78.66.66,0,0,1,.79-.51c.48.1,12,2.61,16.46,6.93a.67.67,0,0,1,0,.94A.69.69,0,0,1,401.37,210.5Z"/><line class="cls-1_mind-map-93" x1="446.86" y1="302.27" x2="461.04" y2="313.15"/><path class="cls-2_mind-map-93" d="M461,313.81a.66.66,0,0,1-.4-.13l-14.18-10.89a.66.66,0,0,1,.81-1.05l14.18,10.88a.66.66,0,0,1-.41,1.19Z"/><path class="cls-1_mind-map-93" d="M406.18,234.16s-5.43-5.21-6.87-11.58-.88-7.75-1.88-8-2.66.45-3.9,2.61-.9,9.82,1.12,12.89S406.18,234.16,406.18,234.16Z"/><path class="cls-2_mind-map-93" d="M406.18,234.82h-.07c-1-.1-9.89-1.1-12-4.33s-2.51-11.18-1.13-13.58,3.3-3.22,4.61-2.94c1,.22,1.13,1.06,1.36,2.73.16,1.2.41,3,1,5.74,1.37,6.09,6.63,11.19,6.68,11.24a.67.67,0,0,1,.14.76A.66.66,0,0,1,406.18,234.82Zm-9.11-19.58c-.73,0-2,.57-3,2.32s-.85,9.24,1.09,12.2c1.23,1.87,6.09,3,9.23,3.5a25.77,25.77,0,0,1-5.77-10.53c-.63-2.8-.88-4.63-1-5.85a7,7,0,0,0-.32-1.62Z"/><path class="cls-1_mind-map-93" d="M325.94,265.56S301.79,324.91,310.85,343s98.08,26.16,98.08,26.16,11.31,4.77,14.83,5.53,16.85,1.51,16.85,1.51-5,1-3.27,2.51,11.57,1.51,12.58-2-1.76-17.6-4.78-19.87S407.92,346.29,405.41,346s-58.85-19.78-58.85-19.78l7.29-55.16"/><path class="cls-2_mind-map-93" d="M442.14,380.36c-2.28,0-4.37-.39-5.23-1.12a1.4,1.4,0,0,1-.56-1.46,2,2,0,0,1,1-1.1c-4.2-.28-11.23-.8-13.69-1.32-3.41-.73-13.69-5-14.87-5.53-4.9-.45-89.46-8.43-98.51-26.51-3.83-7.66-2.45-23.14,4.11-46,4.86-16.94,10.9-31.86,11-32a.67.67,0,0,1,.87-.36.66.66,0,0,1,.36.86c-.24.6-23.93,59.28-15.11,76.92S408.1,368.44,409,368.52a.49.49,0,0,1,.2.05c.11,0,11.29,4.76,14.71,5.49s16.62,1.49,16.75,1.5a.65.65,0,0,1,.62.61.66.66,0,0,1-.53.7,6.75,6.75,0,0,0-3.1,1.23s.05.06.14.13c.93.8,5.56,1.21,8.84.22,1.06-.32,2.38-.91,2.66-1.91,1-3.52-1.85-17.14-4.54-19.16S408.39,347,405.34,346.7c-2.52-.25-53.23-17.82-59-19.82a.67.67,0,0,1-.44-.71L353.2,271a.66.66,0,0,1,1.31.17l-7.22,54.63c22.61,7.84,56.41,19.39,58.18,19.57,2,.2,36.77,8.47,40.07,10.94s6,16.95,5,20.58c-.36,1.25-1.59,2.23-3.56,2.82A17.68,17.68,0,0,1,442.14,380.36Z"/><path class="cls-1_mind-map-93" d="M428,282.92s-16.21-41.51-20.77-48.35-24.54-23.51-27-21.85-1.76,3.52-.72,4.77,6.83,5.28,6.83,5.28-6.52-3-6.73.93,4.77,6.32,4.77,6.32-5.49-4-5.7.31a6.38,6.38,0,0,0,3.83,6s-5.85-5-5.28.21c.93,8.49,18,18.64,18,18.64l7.25,70.6s2.59,41,28.72,39.71c33.53-1.6,43.25-50,26.49-90.87"/><path class="cls-2_mind-map-93" d="M430.08,366.18c-25.38,0-28.2-39.95-28.23-40.36l-7.21-70.24c-2.34-1.43-17.16-10.76-18.06-19-.16-1.48.16-2.45.95-2.87a2,2,0,0,1,1.16-.19,6.52,6.52,0,0,1-.66-3.25,2.58,2.58,0,0,1,1.3-2.43,2.41,2.41,0,0,1,1-.22,5.89,5.89,0,0,1-1.4-4,2.57,2.57,0,0,1,1.2-2.2,4.24,4.24,0,0,1,2.67-.4,30.37,30.37,0,0,1-3.82-3.15,3.52,3.52,0,0,1,.87-5.74c1.83-1.23,8.36,3.56,13.52,7.78,5.4,4.42,12,10.55,14.43,14.26C412.37,241,428,281,428.66,282.68a.66.66,0,0,1-1.24.48c-.16-.42-16.23-41.52-20.7-48.22-4.81-7.22-23.94-22.51-26.12-21.66a2.74,2.74,0,0,0-1.36,1.74,2.81,2.81,0,0,0,.79,2,64,64,0,0,0,6.7,5.16.66.66,0,0,1-.65,1.15c-1.44-.66-4.12-1.45-5.23-.78a1.24,1.24,0,0,0-.57,1.14c-.11,2.15,1.6,3.82,2.92,4.78a14.42,14.42,0,0,1,1.58,1,.67.67,0,0,1,.17.88.65.65,0,0,1-.85.25,10.44,10.44,0,0,1-1.63-1,3.62,3.62,0,0,0-2.57-.56c-.33.16-.52.6-.55,1.3a5.25,5.25,0,0,0,1.49,4,13.71,13.71,0,0,1,2.11,1.48.66.66,0,0,1,.14.85.67.67,0,0,1-.82.27,8,8,0,0,1-2.17-1.5c-.85-.47-1.61-.72-2-.54s-.34.71-.25,1.56c.88,8.07,17.53,18,17.7,18.14a.68.68,0,0,1,.32.51l7.25,70.59c0,.43,2.83,40.27,28,39.12,10.46-.5,19.16-5.75,25.17-15.18,11.42-17.93,11.72-48,.74-74.78a.66.66,0,1,1,1.23-.5c11.13,27.17,10.79,57.71-.86,76-6.24,9.81-15.31,15.27-26.21,15.79Z"/><path class="cls-1_mind-map-93" d="M427.2,281.32s13.08,35.55,16.43,47.28"/><path class="cls-2_mind-map-93" d="M443.63,329.27a.65.65,0,0,1-.63-.48c-3.31-11.58-16.29-46.88-16.42-47.24a.66.66,0,1,1,1.24-.45c.13.35,13.13,35.7,16.45,47.32a.66.66,0,0,1-.46.82Z"/><path class="cls-2_mind-map-93" d="M353.94,267.56h-.07a.66.66,0,0,1-.59-.73c.81-7.53,2-19,2-19.71a.66.66,0,0,1,1.32,0c0,1-1.81,17.93-2,19.85A.66.66,0,0,1,353.94,267.56Z"/><path class="cls-2_mind-map-93" d="M385.23,198.37a10.24,10.24,0,1,1,10.24-10.24A10.25,10.25,0,0,1,385.23,198.37Zm0-19.15a8.92,8.92,0,1,0,8.91,8.91A8.93,8.93,0,0,0,385.23,179.22Z"/><path class="cls-2_mind-map-93" d="M405.13,201.06a10.24,10.24,0,1,1,10.24-10.24A10.26,10.26,0,0,1,405.13,201.06Zm0-19.16a8.92,8.92,0,1,0,8.92,8.92A8.93,8.93,0,0,0,405.13,181.9Z"/><path class="cls-2_mind-map-93" d="M369.68,292.85a.66.66,0,0,1-.62-.43l-7.68-20.62a.66.66,0,0,1,.13-.67l11.6-12.58-9.52-9a.66.66,0,0,1,0-.9c4-4.92,10.48-13,11-14.16a.65.65,0,0,1,.52-.54.65.65,0,0,1,.78.52c.07.35.19.94-10.89,14.54l9.54,9.05a.65.65,0,0,1,0,.92l-11.76,12.76L370.3,292a.67.67,0,0,1-.39.85A.62.62,0,0,1,369.68,292.85Z"/><path class="cls-2_mind-map-93" d="M418.83,255.49a.66.66,0,0,1-.44-1.16l5.49-4.77L416.2,236a.66.66,0,0,1,1.15-.64l7.94,14.07a.68.68,0,0,1-.14.83l-5.89,5.12A.72.72,0,0,1,418.83,255.49Z"/><path class="cls-2_mind-map-93" d="M394.76,260.84l.9,8.07s23.84-7.28,23.68-7.66-1.65-8.21-1.65-8.21Z"/><path class="cls-2_mind-map-93" d="M395.66,269.57a.66.66,0,0,1-.36-.11.69.69,0,0,1-.3-.48l-.89-8.06a.66.66,0,0,1,.44-.7l22.93-7.81a.64.64,0,0,1,.54.06.66.66,0,0,1,.32.44c.55,2.92,1.49,7.7,1.62,8.12a.77.77,0,0,1,0,.52c-.16.33-.35.74-24.09,8A.58.58,0,0,1,395.66,269.57Zm-.18-8.27.75,6.74c8.29-2.53,20-6.2,22.35-7.13-.3-1.34-.93-4.6-1.4-7Z"/><circle class="cls-1_mind-map-93" cx="413.18" cy="258" r="7.56"/><path class="cls-2_mind-map-93" d="M413.18,266.23a8.23,8.23,0,1,1,8.23-8.23A8.23,8.23,0,0,1,413.18,266.23Zm0-15.13a6.9,6.9,0,1,0,6.9,6.9A6.91,6.91,0,0,0,413.18,251.1Z"/><path class="cls-2_mind-map-93" d="M412.11,262.94H412a.65.65,0,0,1-.52-.77l1.08-5.57a.65.65,0,0,1,.42-.5.69.69,0,0,1,.65.12l2.93,2.48a.65.65,0,0,1,.08.93.66.66,0,0,1-.93.08L413.62,258l-.87,4.46A.65.65,0,0,1,412.11,262.94Z"/></g></svg>