<svg transform="scale(1)" version="1.1" id="_x30_228_x5F_Coding_x5F_4" xmlns="http://www.w3.org/2000/svg" xmlns:xlink="http://www.w3.org/1999/xlink" x="0px" y="0px" viewBox="0 0 500 500" xml:space="preserve" class="show_show__wrapper__graphic__5Waiy "><title>React</title><style type="text/css">
	.st0{fill:#b8acac;}
	.st1{fill:#fffaf7;}
	.st2{fill:#e2d8d8;}
</style><g id="laptop"><polygon class="st0" points="109.1,290 341.3,290 396.8,340.5 53.5,340.5 	"></polygon><path class="st1" d="M396.8,341H53.5c-0.2,0-0.4-0.1-0.5-0.3c-0.1-0.2,0-0.4,0.1-0.5l55.6-50.4c0.1-0.1,0.2-0.1,0.3-0.1h232.2
		c0.1,0,0.2,0,0.3,0.1l55.6,50.4c0.2,0.2,0.2,0.5,0,0.7C397.1,340.9,397,341,396.8,341z M54.8,340h340.7l-54.5-49.4H109.3L54.8,340z
		"></path><polygon class="st2" points="288.5,339.9 161.9,339.9 174.8,324.7 275.6,324.7 	"></polygon><polygon class="st2" points="223.6,296.1 207.5,296.1 206.5,300.7 223.6,300.7 	"></polygon><polygon class="st2" points="226.3,300.7 243.2,300.7 242.2,296.1 226.3,296.1 	"></polygon><polygon class="st2" points="204.2,310.8 223.6,310.8 223.6,303.6 205.8,303.6 	"></polygon><polygon class="st2" points="226.2,310.8 245.4,310.8 243.8,303.6 226.2,303.6 	"></polygon><polygon class="st2" points="246.3,300.7 262.8,300.7 260.8,296.1 245.3,296.1 	"></polygon><polygon class="st2" points="202.8,303.6 185.4,303.6 182.2,310.8 201.2,310.8 	"></polygon><polygon class="st2" points="138.2,310.8 156.4,310.8 161,303.6 144.4,303.6 	"></polygon><polygon class="st2" points="186.6,300.7 203.4,300.7 204.3,296.1 188.6,296.1 	"></polygon><polygon class="st2" points="181.9,303.6 164.9,303.6 160.2,310.8 178.8,310.8 	"></polygon><polygon class="st2" points="289.1,310.8 284.4,303.6 267.6,303.6 270.7,310.8 	"></polygon><polygon class="st2" points="246.9,303.6 248.4,310.8 267.2,310.8 264.1,303.6 	"></polygon><polygon class="st2" points="326.6,300.7 340.8,300.7 335.6,296.1 321.7,296.1 	"></polygon><polygon class="st2" points="311,310.8 304.7,303.6 288.3,303.6 292.9,310.8 	"></polygon><polygon class="st2" points="332.8,310.8 325,303.6 309,303.6 315.1,310.8 	"></polygon><polygon class="st2" points="286.4,300.7 302.1,300.7 298.2,296.1 283.4,296.1 	"></polygon><polygon class="st2" points="266.3,300.7 282.5,300.7 279.5,296.1 264.3,296.1 	"></polygon><polygon class="st2" points="302.5,296.1 306.5,300.7 321.9,300.7 316.9,296.1 	"></polygon><polygon class="st2" points="166.8,300.7 183.1,300.7 185.1,296.1 169.8,296.1 	"></polygon><polygon class="st2" points="290.9,313.6 271.9,313.6 274.5,319.8 295,319.8 	"></polygon><polygon class="st2" points="146.9,300.7 162.9,300.7 165.8,296.1 150.9,296.1 	"></polygon><polygon class="st2" points="335.8,313.6 317.5,313.6 322.8,319.8 342.5,319.8 	"></polygon><polygon class="st2" points="122.3,300.7 127.2,296.1 114.8,296.1 109.6,300.7 	"></polygon><polygon class="st2" points="344,303.6 329.7,303.6 337.4,310.8 352.1,310.8 	"></polygon><polygon class="st2" points="313.4,313.6 294.7,313.6 298.7,319.8 318.7,319.8 	"></polygon><polygon class="st2" points="126.3,319.8 131.6,313.6 113.1,313.6 106.5,319.8 	"></polygon><polygon class="st2" points="98.3,310.8 111.5,310.8 119.2,303.6 106.3,303.6 	"></polygon><polygon class="st2" points="116.1,310.8 134,310.8 140.1,303.6 123.9,303.6 	"></polygon><polygon class="st2" points="127,300.7 142.6,300.7 146.5,296.1 132,296.1 	"></polygon><polygon class="st2" points="154.6,313.6 135.8,313.6 130.4,319.8 150.7,319.8 	"></polygon><polygon class="st2" points="177.6,313.6 158.4,313.6 154.4,319.8 175,319.8 	"></polygon><polygon class="st2" points="181,313.6 268.5,313.6 271.2,319.8 178.3,319.8 	"></polygon><path class="st0" d="M342.8,136.6l-1.5,149.7c0,2.1-1.7,3.7-3.8,3.7H112.8c-2.1,0-3.8-1.7-3.8-3.7l-1.5-149.7
		c0-2.1,1.6-3.8,3.7-3.8c0,0,0,0,0.1,0H339C341.1,132.8,342.8,134.5,342.8,136.6C342.8,136.6,342.8,136.6,342.8,136.6z"></path><path class="st1" d="M337.5,290.5H112.8c-2.3,0-4.2-1.9-4.3-4.2L107,136.6c0-2.4,1.9-4.3,4.2-4.3c0,0,0,0,0.1,0H339
		c2.4,0,4.3,1.9,4.3,4.3c0,0,0,0,0,0l-1.5,149.7C341.8,288.6,339.9,290.5,337.5,290.5z M111.3,133.3c-1.8,0-3.3,1.4-3.3,3.2
		c0,0,0,0,0,0.1l1.5,149.7c0,1.8,1.5,3.2,3.3,3.2h224.7c1.8,0,3.3-1.4,3.3-3.2l1.5-149.7l0,0c0-1.8-1.4-3.3-3.2-3.3c0,0,0,0,0,0
		L111.3,133.3z"></path><polygon class="st0" points="114.9,284.1 113.5,138.7 336.9,138.7 335.4,284.1 	"></polygon><path class="st1" d="M335.4,284.6H114.9c-0.3,0-0.5-0.2-0.5-0.5L113,138.7c0-0.3,0.2-0.5,0.5-0.5h223.4c0.1,0,0.3,0.1,0.4,0.1
		c0.1,0.1,0.1,0.2,0.1,0.4l-1.5,145.5C335.9,284.4,335.7,284.6,335.4,284.6z M115.4,283.6H335l1.5-144.4H114L115.4,283.6z"></path><rect class="st2" x="53.5" y="340.5" width="343.3" height="7.2"></rect><path class="st1" d="M396.8,348.1H53.5c-0.3,0-0.5-0.2-0.5-0.5v-7.2c0-0.3,0.2-0.5,0.5-0.5h343.3c0.3,0,0.5,0.2,0.5,0.5v7.2
		C397.3,347.9,397.1,348.1,396.8,348.1z M54,347.1h342.3V341H54L54,347.1z"></path><path class="st1" d="M183.5,162h-52.8c-0.3,0-0.5-0.2-0.5-0.5s0.2-0.5,0.5-0.5h52.8c0.3,0,0.5,0.2,0.5,0.5S183.7,162,183.5,162z"></path><path class="st1" d="M221.5,162h-27.4c-0.3,0-0.5-0.2-0.5-0.5s0.2-0.5,0.5-0.5h27.4c0.3,0,0.5,0.2,0.5,0.5S221.8,162,221.5,162z"></path><path class="st1" d="M253.2,162h-19.1c-0.3,0-0.5-0.2-0.5-0.5s0.2-0.5,0.5-0.5h19.1c0.3,0,0.5,0.2,0.5,0.5S253.5,162,253.2,162z"></path><path class="st1" d="M321.7,162H262c-0.3,0-0.5-0.2-0.5-0.5s0.2-0.5,0.5-0.5h59.7c0.3,0,0.5,0.2,0.5,0.5S322,162,321.7,162
		L321.7,162z"></path><path class="st1" d="M157.7,190.4h-27.4c-0.3,0-0.5-0.2-0.5-0.5c0-0.3,0.2-0.5,0.5-0.5h27.4c0.3,0,0.5,0.2,0.5,0.5
		S158,190.4,157.7,190.4z"></path><path class="st1" d="M189.4,190.4h-19.2c-0.3,0-0.5-0.2-0.5-0.5s0.2-0.5,0.5-0.5h19.1c0.3,0,0.5,0.2,0.5,0.5
		C189.9,190.2,189.7,190.4,189.4,190.4z"></path><path class="st1" d="M257.9,190.4h-59.7c-0.3,0-0.5-0.2-0.5-0.5s0.2-0.5,0.5-0.5h59.7c0.3,0,0.5,0.2,0.5,0.5
		S258.1,190.4,257.9,190.4z"></path><path class="st1" d="M150.5,175.5h-19.2c-0.3,0-0.5-0.2-0.5-0.5s0.2-0.5,0.5-0.5h19.1c0.3,0,0.5,0.2,0.5,0.5
		S150.8,175.5,150.5,175.5L150.5,175.5z"></path><path class="st1" d="M218.9,175.5h-59.7c-0.3,0-0.5-0.2-0.5-0.5s0.2-0.5,0.5-0.5h59.7c0.3,0,0.5,0.2,0.5,0.5
		S219.2,175.5,218.9,175.5L218.9,175.5z"></path><path class="st1" d="M243.4,175.5h-19.1c-0.3,0-0.5-0.2-0.5-0.5s0.2-0.5,0.5-0.5h19.1c0.3,0,0.5,0.2,0.5,0.5
		S243.7,175.5,243.4,175.5z"></path><path class="st1" d="M311.8,175.5h-59.7c-0.3,0-0.5-0.2-0.5-0.5s0.2-0.5,0.5-0.5h59.7c0.3,0,0.5,0.2,0.5,0.5
		S312.1,175.5,311.8,175.5z"></path><path class="st1" d="M183.5,202.1h-52.8c-0.3,0-0.5-0.2-0.5-0.5c0-0.3,0.2-0.5,0.5-0.5h52.8c0.3,0,0.5,0.2,0.5,0.5
		S183.7,202.1,183.5,202.1z"></path><path class="st1" d="M221.5,202.1h-27.4c-0.3,0-0.5-0.2-0.5-0.5s0.2-0.5,0.5-0.5h27.4c0.3,0,0.5,0.2,0.5,0.5
		S221.8,202.1,221.5,202.1z"></path><path class="st1" d="M253.2,202.1h-19.1c-0.3,0-0.5-0.2-0.5-0.5c0-0.3,0.2-0.5,0.5-0.5h19.1c0.3,0,0.5,0.2,0.5,0.5
		S253.5,202.1,253.2,202.1z"></path><path class="st1" d="M321.7,202.1H262c-0.3,0-0.5-0.2-0.5-0.5c0-0.3,0.2-0.5,0.5-0.5h59.7c0.3,0,0.5,0.2,0.5,0.5
		C322.2,201.9,322,202.1,321.7,202.1C321.7,202.1,321.7,202.1,321.7,202.1z"></path><path class="st1" d="M157.7,230.5h-27.4c-0.3,0-0.5-0.2-0.5-0.5c0-0.3,0.2-0.5,0.5-0.5h27.4c0.3,0,0.5,0.2,0.5,0.5
		S158,230.5,157.7,230.5z"></path><path class="st1" d="M189.4,230.5h-19.2c-0.3,0-0.5-0.2-0.5-0.5s0.2-0.5,0.5-0.5h19.1c0.3,0,0.5,0.2,0.5,0.5
		C189.9,230.3,189.7,230.5,189.4,230.5z"></path><path class="st1" d="M257.9,230.5h-59.7c-0.3,0-0.5-0.2-0.5-0.5s0.2-0.5,0.5-0.5h59.7c0.3,0,0.5,0.2,0.5,0.5
		S258.1,230.5,257.9,230.5z"></path><path class="st1" d="M150.5,215.6h-19.2c-0.3,0-0.5-0.2-0.5-0.5c0-0.3,0.2-0.5,0.5-0.5h19.1c0.3,0,0.5,0.2,0.5,0.5
		S150.8,215.6,150.5,215.6z"></path><path class="st1" d="M218.9,215.6h-59.7c-0.3,0-0.5-0.2-0.5-0.5c0-0.3,0.2-0.5,0.5-0.5h59.7c0.3,0,0.5,0.2,0.5,0.5
		C219.4,215.3,219.2,215.6,218.9,215.6z"></path><path class="st1" d="M243.4,215.6h-19.1c-0.3,0-0.5-0.2-0.5-0.5s0.2-0.5,0.5-0.5h19.1c0.3,0,0.5,0.2,0.5,0.5
		S243.7,215.6,243.4,215.6z"></path><path class="st1" d="M311.8,215.6h-59.7c-0.3,0-0.5-0.2-0.5-0.5c0-0.3,0.2-0.5,0.5-0.5h59.7c0.3,0,0.5,0.2,0.5,0.5
		S312.1,215.6,311.8,215.6z"></path></g><g id="hand"><path class="st0" d="M345.1,317l-10.9,14.4c0,0-27.7,16.1-31.5,13s-14.9-9.6-22.5-12.1s-25.1-2.4-24.2-10.2
		c0.3-2.8,2.9-4.6,6.1-5.7c5.6-2,13.1-1.9,13.1-1.9h0.8l7.3-0.1c-1.5-3.1-3.3-6-5.3-8.8l-0.9-1.2c-2.7-3.5-6.5-8.7-9.4-9.5
		c-3.3-0.3-4.6,0.1-10,3.7s-14.7,6.8-16.7,2.8s7.6-12.6,15-18.1s15.4-0.7,15.4-0.7c7.3-7.9,18.2-2.8,18.2-2.8s0.6-1.5,5-2.9
		s10.7,2.2,10.7,2.2s6.7-3.3,11.2-1.9s14.2,11.8,14.2,11.8C339.9,297.8,345.1,317,345.1,317z"></path><path class="st1" d="M304.2,345.2c-0.6,0-1.3-0.1-1.8-0.5c-4-3.2-14.9-9.6-22.3-12c-2.6-0.7-5.2-1.2-7.8-1.6
		c-8.2-1.4-17.5-3-16.8-9.1c0.3-2.7,2.5-4.8,6.4-6.1c5.6-2,13-2,13.3-2l7.3-0.1c-1.4-2.8-3.1-5.5-4.9-8l-0.9-1.2l-0.5-0.6
		c-2.5-3.3-6-7.9-8.7-8.7c-3-0.3-4.1,0-9.6,3.6c-4.4,3-11.2,5.5-15,4.5c-1.1-0.2-1.9-0.9-2.4-1.9c-2.5-5.1,11-15.7,15.1-18.8
		c6.7-5,13.9-1.8,15.6-1c6.6-6.8,16-3.6,18.1-2.8c0.5-0.6,1.8-1.7,5.1-2.7c4.2-1.3,9.5,1.5,10.7,2.2c1.3-0.6,7.1-3.1,11.4-1.8
		c4.6,1.4,14,11.5,14.4,11.9c9.4,8.9,14.5,27.6,14.7,28.4c0,0.1,0,0.3-0.1,0.4l-10.9,14.4c0,0.1-0.1,0.1-0.1,0.1
		C331.9,333.3,311.2,345.2,304.2,345.2z M275.1,314.9c-0.7,0-7.7,0-12.9,1.9c-3.6,1.3-5.5,3-5.8,5.3c-0.6,5.2,8.2,6.7,16,8
		c2.7,0.4,5.3,0.9,7.9,1.6c7.5,2.4,18.6,8.9,22.6,12.1c2.6,2.1,20.3-6.8,30.9-12.9l10.6-14.1c-0.6-2.2-5.8-19.5-14.4-27.7
		c-0.1-0.1-9.6-10.4-14-11.6s-10.8,1.9-10.9,1.9c-0.2,0.1-0.3,0.1-0.5,0c-0.1,0-6-3.5-10.2-2.2s-4.7,2.6-4.7,2.6
		c-0.1,0.3-0.4,0.4-0.7,0.2c-0.1,0-10.6-4.8-17.6,2.7c-0.2,0.2-0.4,0.2-0.6,0.1c-0.1,0-7.8-4.5-14.8,0.7
		c-8.5,6.4-16.4,14.2-14.8,17.5c0.4,0.7,1,1.2,1.8,1.4c3.4,0.9,9.8-1.5,14.1-4.4c5.4-3.6,6.8-4.1,10.3-3.8c3,0.9,6.5,5.4,9.3,9
		l0.5,0.6l0.9,1.2c2.1,2.8,3.9,5.8,5.4,8.9c0.1,0.1,0.1,0.3,0,0.5c-0.1,0.1-0.2,0.2-0.4,0.2l-8.1,0.1L275.1,314.9z"></path><path class="st1" d="M314.2,286.9c-0.1,0-0.2,0-0.3-0.1c0,0-5.5-4.7-9-7.4c-0.2-0.2-0.3-0.5-0.1-0.7c0.2-0.2,0.5-0.3,0.7-0.1l0,0
		c3.6,2.7,9,7.4,9.1,7.4c0.2,0.2,0.2,0.5,0.1,0.7c0,0,0,0,0,0C314.5,286.8,314.3,286.9,314.2,286.9z"></path><path class="st1" d="M299.5,286.9c-0.1,0-0.2,0-0.3-0.1c-0.1,0-6.2-4.6-9.9-6.8c-0.2-0.1-0.3-0.4-0.2-0.7c0,0,0,0,0,0
		c0.1-0.2,0.4-0.3,0.7-0.2c3.7,2.2,10,6.8,10,6.8c0.2,0.2,0.3,0.5,0.1,0.7C299.7,286.8,299.6,286.9,299.5,286.9L299.5,286.9z"></path><path class="st1" d="M283.3,290.1c-0.1,0-0.2,0-0.3-0.1c-8.1-6.3-11.8-7.1-11.8-7.1c-0.3-0.1-0.4-0.3-0.4-0.6
		c0-0.3,0.3-0.4,0.6-0.4c0,0,0,0,0,0c0.1,0,3.8,0.8,12.2,7.3c0.2,0.2,0.2,0.5,0.1,0.7C283.6,290.1,283.5,290.1,283.3,290.1z"></path><path class="st0" d="M283.3,314.3l-7.3,0.1c-0.2-3.4,0.1-6.8,1-10.1l0.9,1.2C280,308.2,281.8,311.2,283.3,314.3z"></path><path class="st1" d="M276,314.9c-0.3,0-0.5-0.2-0.5-0.5c-0.2-3.5,0.1-6.9,1-10.3c0-0.2,0.2-0.3,0.4-0.4c0.2,0,0.4,0,0.5,0.2
		l0.9,1.2c2.1,2.8,3.9,5.8,5.4,8.9c0.1,0.1,0.1,0.3,0,0.5c-0.1,0.1-0.2,0.2-0.4,0.2L276,314.9L276,314.9z M277.2,305.4
		c-0.6,2.8-0.9,5.7-0.8,8.5l6-0.1c-1.4-2.8-3.1-5.5-4.9-8L277.2,305.4z"></path><path class="st0" d="M276,314.4h-0.8c0,0-7.5-0.1-13.1,1.9c-1.3-8.1,5.5-21.6,5.5-21.6c3,0.9,6.7,6,9.4,9.5
		C276.1,307.6,275.8,311,276,314.4z"></path><path class="st1" d="M262.1,316.8c-0.1,0-0.2,0-0.2-0.1c-0.1-0.1-0.2-0.2-0.2-0.4c-1.3-8.2,5.3-21.3,5.6-21.9
		c0.1-0.2,0.3-0.3,0.6-0.3c3,0.8,6.4,5.4,9.2,9l0.5,0.6c0.1,0.1,0.1,0.3,0.1,0.4c-0.9,3.2-1.2,6.6-1,10c0,0.1,0,0.3-0.1,0.4
		c-0.1,0.1-0.2,0.2-0.4,0.1h-0.8c-0.1,0-7.5,0-12.9,1.9C262.2,316.8,262.1,316.8,262.1,316.8z M267.9,295.4
		c-1.1,2.2-6.1,13.1-5.4,20.3c4.1-1.2,8.4-1.8,12.7-1.8h0.3c-0.2-3.2,0.2-6.4,1-9.5l-0.3-0.5C273.7,300.8,270.4,296.5,267.9,295.4
		L267.9,295.4z"></path><path class="st0" d="M181.2,313.3c4.5,2.1,20.6,13.3,21.9,14s-0.4,7.2-10.9,3.8c-7.3-2.3-14.8-3.9-22.4-5L181.2,313.3z"></path><path class="st1" d="M197.5,332.6c-1.9,0-3.8-0.4-5.5-1c-7.3-2.3-14.8-3.9-22.3-5c-0.2,0-0.3-0.1-0.4-0.3c-0.1-0.2,0-0.4,0.1-0.5
		l11.5-12.8c0.1-0.2,0.4-0.2,0.6-0.1c3,1.4,11.2,6.9,16.6,10.5c2.6,1.8,4.9,3.3,5.3,3.5c0.7,0.3,0.9,1.4,0.4,2.5
		C203,331.1,201,332.6,197.5,332.6z M170.7,325.8c7.3,1.1,14.5,2.7,21.6,4.9c6.2,2,9.4,0.5,10.4-1.5c0.4-0.8,0.2-1.3,0.1-1.4
		c-0.4-0.2-2.2-1.4-5.4-3.6c-5.2-3.5-12.9-8.6-16.1-10.3L170.7,325.8z"></path><path class="st0" d="M206.3,309l-3.9,0.8c-8,1.7-14.8,3.3-19.1,5.5c-3,0.8-6.7,6-9.4,9.5c-0.3,0.4-0.6,0.8-0.9,1.2
		c-2,2.8-3.8,5.7-5.3,8.8l7.3,0.1h0.8c0,0,7.5-0.1,13.1,1.9c3.2,1.1,5.8,2.9,6.1,5.7c0.9,7.8-16.7,7.8-24.2,10.2
		s-18.6,8.9-22.5,12.1s-31.5-12.9-31.5-12.9l-10.9-14.4c0,0,5.2-19.2,14.6-28.2c0,0,9.7-10.4,14.2-11.8s11.2,1.9,11.2,1.9
		s6.1-3.6,10.6-2.2s5.1,2.9,5.1,2.9s10.9-5.1,18.1,2.8l0,0h0.1l0.1-0.1l0.1-0.1c1.1-0.5,2.3-0.9,3.5-1.3c0,0,0,0,0.1,0
		c3.5-1,7.1-1.4,10.7-1.3c9.4,0.1,19.3,0,19.3,0S216,307,206.3,309z"></path><path class="st1" d="M146.8,365.8c-2,0-6.3-1-16-5.8c-7.3-3.6-14.3-7.6-14.3-7.7c-0.1,0-0.1-0.1-0.2-0.1l-10.9-14.4
		c-0.1-0.1-0.1-0.3-0.1-0.4c0.2-0.8,5.3-19.5,14.7-28.4c0.4-0.4,9.8-10.5,14.4-11.9c4.2-1.2,10.1,1.3,11.4,1.9
		c1.2-0.7,6.6-3.5,10.7-2.2c3.3,1,4.6,2.1,5.1,2.7c2-0.8,11.4-4,18.1,2.8l0,0c1.2-0.5,2.4-1,3.6-1.3l0,0c3.5-1,7.2-1.4,10.9-1.4
		c9.3,0.1,19.2,0,19.3,0c0.2,0,0.4,0.1,0.5,0.3c0.6,1.7,0.4,3.6-0.5,5.2c-1.2,2.1-3.6,3.6-7.1,4.3l0,0l-3.9,0.8
		c-8.1,1.8-14.7,3.3-19,5.5c-2.7,0.8-6.2,5.4-8.8,8.7l-0.5,0.6l-0.9,1.2c-1.9,2.5-3.5,5.2-4.9,8l7.3,0.1c0.3,0,7.6,0,13.3,2
		c3.9,1.4,6.1,3.5,6.4,6.1c0.7,6.2-8.6,7.7-16.8,9.1c-2.6,0.4-5.2,0.9-7.8,1.6c-7.4,2.4-18.4,8.8-22.3,12
		C147.9,365.7,147.3,365.9,146.8,365.8z M117,351.5c10.6,6.1,28.3,15,30.9,12.9c4-3.2,15.1-9.7,22.6-12.1c2.6-0.7,5.2-1.3,7.9-1.6
		c7.8-1.3,16.6-2.8,16-8c-0.3-2.3-2.2-4.1-5.8-5.3c-5.5-1.9-12.9-1.9-12.9-1.9l-8.1-0.1c-0.2,0-0.3-0.1-0.4-0.2
		c-0.1-0.1-0.1-0.3,0-0.5c1.5-3.1,3.3-6.1,5.4-8.9c0.3-0.4,0.6-0.8,0.9-1.2l0.5-0.6c2.8-3.6,6.2-8.2,9.2-9
		c4.3-2.2,10.9-3.7,19.1-5.5l3.9-0.8c3.2-0.7,5.4-2,6.4-3.8c0.7-1.2,0.8-2.7,0.5-4.1c-1.9,0-10.6,0.1-18.9,0
		c-3.6-0.1-7.1,0.4-10.6,1.3l0,0h-0.1c-1.2,0.3-2.3,0.7-3.4,1.2l-0.1,0.1l-0.4-0.4l0.2,0.4l-0.1,0.1c-0.2,0.1-0.4,0.1-0.6-0.1
		c-6.9-7.5-17.5-2.8-17.6-2.7c-0.1,0.1-0.3,0.1-0.4,0c-0.1-0.1-0.2-0.2-0.3-0.3l0,0c0,0-0.7-1.3-4.7-2.6s-10.1,2.2-10.2,2.2
		c-0.1,0.1-0.3,0.1-0.5,0c-0.1,0-6.6-3.2-10.9-1.9s-13.9,11.5-14,11.6c-8.6,8.2-13.8,25.5-14.4,27.7L117,351.5z M206.3,309
		L206.3,309z"></path><path class="st1" d="M180,303.3c-0.2,0-0.4-0.1-0.4-0.3c-0.1-0.2,0-0.5,0.2-0.7c1.1-0.6,2.3-1,3.6-1.3c0.3-0.1,0.5,0.1,0.6,0.3
		c0,0,0,0,0,0c0.1,0.3-0.1,0.5-0.4,0.6c-1.2,0.3-2.3,0.7-3.4,1.2C180.1,303.3,180.1,303.3,180,303.3z"></path><path class="st1" d="M136.8,307.5c-0.1,0-0.3-0.1-0.4-0.2c-0.2-0.2-0.2-0.5,0-0.7c0.1,0,5.5-4.8,9.1-7.4c0.2-0.2,0.5-0.1,0.7,0.1
		c0.2,0.2,0.1,0.5-0.1,0.7l0,0c-3.6,2.6-9,7.3-9,7.4C137,307.4,136.9,307.4,136.8,307.5z"></path><path class="st1" d="M151.5,307.5c-0.2,0-0.3-0.1-0.4-0.2c-0.2-0.2-0.1-0.5,0.1-0.7c0.1,0,6.3-4.6,10-6.8c0.2-0.1,0.5-0.1,0.7,0.2
		c0,0,0,0,0,0c0.1,0.2,0.1,0.5-0.2,0.7c0,0,0,0,0,0c-3.7,2.2-9.9,6.7-9.9,6.8C151.7,307.4,151.6,307.4,151.5,307.5z"></path><path class="st1" d="M167.6,310.7c-0.2,0-0.3-0.1-0.4-0.2c-0.2-0.2-0.1-0.5,0.1-0.7c7.8-6.1,11.5-7.1,12.2-7.3
		c0.3-0.1,0.6,0.1,0.6,0.4c0.1,0.3-0.1,0.6-0.4,0.6c-0.4,0.1-4,1.1-11.8,7.1C167.9,310.7,167.8,310.7,167.6,310.7z"></path><path class="st2" d="M394.3,341.7c0,0-41.3-27.2-50-27.3s-46.5,23.4-42.5,36.4s34.2,53.6,34.2,53.6S389.3,363,394.3,341.7z"></path><path class="st2" d="M55.7,362.6c0,0,41.3-27.2,50-27.3s46.5,23.4,42.5,36.4S114,425.4,114,425.4S60.7,383.9,55.7,362.6z"></path></g><g id="graphic"><rect class="st0" x="41.9" y="89" width="98.2" height="112.6"></rect><path class="st1" d="M140.1,202.1H41.9c-0.3,0-0.5-0.2-0.5-0.5V89c0-0.3,0.2-0.5,0.5-0.5h98.2c0.3,0,0.5,0.2,0.5,0.5v112.6
		C140.6,201.9,140.4,202.1,140.1,202.1z M42.4,201.1h97.2V89.5H42.4V201.1z"></path><path class="st1" d="M81.4,179.1c-0.3,0-0.5-0.2-0.5-0.5v-36.4c0-0.3,0.2-0.5,0.5-0.5h34.3v-30.5H60.8c-0.3,0-0.5-0.2-0.5-0.5
		s0.2-0.5,0.5-0.5h55.4c0.3,0,0.5,0.2,0.5,0.5v31.5c0,0.3-0.2,0.5-0.5,0.5H81.9v35.9C81.9,178.9,81.7,179.1,81.4,179.1z"></path><rect class="st2" x="54.4" y="104.3" width="12.8" height="12.8"></rect><path class="st1" d="M67.2,117.7H54.4c-0.3,0-0.5-0.2-0.5-0.5v-12.8c0-0.3,0.2-0.5,0.5-0.5h12.8c0.3,0,0.5,0.2,0.5,0.5v12.8
		C67.7,117.4,67.5,117.7,67.2,117.7z M54.9,116.7h11.8v-11.8H54.9L54.9,116.7z"></path><rect class="st2" x="109.8" y="104.3" width="12.8" height="12.8"></rect><path class="st1" d="M122.7,117.7h-12.8c-0.3,0-0.5-0.2-0.5-0.5v-12.8c0-0.3,0.2-0.5,0.5-0.5h12.8c0.3,0,0.5,0.2,0.5,0.5v12.8
		C123.2,117.4,122.9,117.7,122.7,117.7z M110.3,116.7h11.8v-11.8h-11.8V116.7z"></path><rect class="st2" x="75" y="134.8" width="12.8" height="12.8"></rect><path class="st1" d="M87.8,148.1H75c-0.3,0-0.5-0.2-0.5-0.5v-12.8c0-0.3,0.2-0.5,0.5-0.5h12.8c0.3,0,0.5,0.2,0.5,0.5v12.8
		C88.3,147.9,88.1,148.1,87.8,148.1z M75.5,147.1h11.8v-11.8H75.5L75.5,147.1z"></path><rect class="st2" x="75" y="170.3" width="12.8" height="12.8"></rect><path class="st1" d="M87.8,183.6H75c-0.3,0-0.5-0.2-0.5-0.5v-12.8c0-0.3,0.2-0.5,0.5-0.5h12.8c0.3,0,0.5,0.2,0.5,0.5v12.8
		C88.3,183.4,88.1,183.6,87.8,183.6z M75.5,182.6h11.8v-11.8H75.5L75.5,182.6z"></path></g><g id="UI-coding"><rect class="st2" x="354.9" y="96.8" width="103.8" height="66"></rect><path class="st1" d="M458.7,163.3H354.9c-0.3,0-0.5-0.2-0.5-0.5v-66c0-0.3,0.2-0.5,0.5-0.5h103.8c0.3,0,0.5,0.2,0.5,0.5v66
		C459.2,163.1,458.9,163.3,458.7,163.3z M355.4,162.3h102.8v-65H355.4V162.3z"></path><path class="st0" d="M392.2,150.2c-0.1,0-0.3-0.1-0.4-0.1l-19.6-19.6c-0.2-0.2-0.2-0.5,0-0.7l20.2-20.2c0.2-0.2,0.5-0.2,0.7,0
		c0.2,0.2,0.2,0.5,0,0.7c0,0,0,0,0,0l-19.9,19.9l19.2,19.2c0.2,0.2,0.2,0.5,0,0.7C392.5,150.1,392.3,150.2,392.2,150.2z"></path><path class="st0" d="M421.3,150.2c-0.1,0-0.3-0.1-0.4-0.1c-0.2-0.2-0.2-0.5,0-0.7c0,0,0,0,0,0l19.2-19.2l-19.9-19.9
		c-0.2-0.2-0.2-0.5,0-0.7c0,0,0,0,0,0c0.2-0.2,0.5-0.2,0.7,0l20.2,20.2c0.2,0.2,0.2,0.5,0,0.7c0,0,0,0,0,0l-19.6,19.6
		C421.6,150.1,421.4,150.2,421.3,150.2z"></path><path class="st0" d="M410.7,150.2c-0.2,0-0.4-0.2-0.5-0.4l-9.7-39.8c-0.1-0.3,0.1-0.5,0.4-0.6c0.3-0.1,0.5,0.1,0.6,0.4c0,0,0,0,0,0
		l9.7,39.8c0.1,0.3-0.1,0.5-0.3,0.6c0,0,0,0,0,0L410.7,150.2z"></path></g><g id="list"><circle class="st2" cx="362.1" cy="201.6" r="5"></circle><path class="st1" d="M362.1,207.2c-3.1,0-5.5-2.5-5.5-5.5c0-3.1,2.5-5.5,5.5-5.5s5.5,2.5,5.5,5.5c0,0,0,0,0,0
		C367.7,204.7,365.2,207.2,362.1,207.2z M362.1,197.1c-2.5,0-4.5,2-4.5,4.5c0,2.5,2,4.5,4.5,4.5c2.5,0,4.5-2,4.5-4.5
		S364.6,197.1,362.1,197.1L362.1,197.1z"></path><path class="st1" d="M455.7,202.1h-81.9c-0.3,0-0.5-0.2-0.5-0.5c0-0.3,0.2-0.5,0.5-0.5h81.9c0.3,0,0.5,0.2,0.5,0.5
		C456.2,201.9,455.9,202.1,455.7,202.1z"></path><circle class="st2" cx="362.1" cy="221.9" r="5"></circle><path class="st1" d="M362.1,227.4c-3.1,0-5.5-2.5-5.5-5.5c0-3.1,2.5-5.5,5.5-5.5c3.1,0,5.5,2.5,5.5,5.5S365.2,227.4,362.1,227.4
		L362.1,227.4z M362.1,217.3c-2.5,0-4.5,2-4.5,4.5c0,2.5,2,4.5,4.5,4.5c2.5,0,4.5-2,4.5-4.5S364.6,217.4,362.1,217.3L362.1,217.3z"></path><path class="st1" d="M455.7,222.4h-81.9c-0.3,0-0.5-0.2-0.5-0.5s0.2-0.5,0.5-0.5h81.9c0.3,0,0.5,0.2,0.5,0.5
		S455.9,222.4,455.7,222.4z"></path><circle class="st2" cx="362.1" cy="242.1" r="5"></circle><path class="st1" d="M362.1,247.7c-3.1,0-5.5-2.5-5.5-5.5c0-3.1,2.5-5.5,5.5-5.5c3.1,0,5.5,2.5,5.5,5.5S365.2,247.7,362.1,247.7
		L362.1,247.7z M362.1,237.6c-2.5,0-4.5,2-4.5,4.5s2,4.5,4.5,4.5c2.5,0,4.5-2,4.5-4.5c0,0,0,0,0,0
		C366.7,239.6,364.6,237.6,362.1,237.6C362.1,237.6,362.1,237.6,362.1,237.6L362.1,237.6z"></path><path class="st1" d="M455.7,242.6h-81.9c-0.3,0-0.5-0.2-0.5-0.5c0-0.3,0.2-0.5,0.5-0.5h81.9c0.3,0,0.5,0.2,0.5,0.5
		C456.2,242.4,455.9,242.6,455.7,242.6z"></path></g></svg>