<svg transform="scale(1)" version="1.1" id="Layer_1" xmlns="http://www.w3.org/2000/svg" xmlns:xlink="http://www.w3.org/1999/xlink" x="0px" y="0px" viewBox="0 0 500 500" xml:space="preserve" class="show_show__wrapper__graphic__5Waiy "><title>React</title><style type="text/css">
	.st0{fill:#fffcfc;}
	.st1{fill:#cdcdcd;}
	.st2{fill:#3eb4cf;}
	.st3{fill:none;}
	.st4{fill:#8f9496;}
</style><g id="character"><path class="st0" d="M193.7,231.1c0,0,12.6-4.6,18.9-5s13.6,2.6,13.6,5.3s1.3,7.9-0.7,7.6s-3.6-5.6-3.6-5.6s-8.7,0.5-10.6,1
		c-3.6,1,5.3,4,5.3,7.3s-11.9-3.3-11.9-3.3l-8.6,5L193.7,231.1z"></path><path class="st1" d="M196,244.1c-0.1,0-0.2,0-0.3-0.1c-0.2-0.1-0.4-0.3-0.4-0.5l-2.3-12.3c-0.1-0.4,0.1-0.7,0.5-0.9
		c0.5-0.2,12.8-4.7,19.1-5c4.8-0.2,10.7,1.4,13.2,3.8c0.7,0.6,1.1,1.4,1.2,2.3c0,0.9,0.1,1.7,0.2,2.6c0.3,2.8,0.4,4.6-0.4,5.4
		c-0.3,0.3-0.8,0.5-1.3,0.4c-2-0.3-3.5-4-4-5.6c-3.3,0.1-6.6,0.4-9.9,0.9l-0.2,0.1c0.6,0.5,1.2,1,1.9,1.5c2,1.4,4.2,3,4.2,5
		c0,0.6-0.3,1.1-0.8,1.4c-2.1,1.3-9.2-2.4-11.9-3.9l-8.3,4.7C196.3,244.1,196.1,244.1,196,244.1z M194.5,231.6l2,10.6l7.7-4.4
		c0.2-0.1,0.5-0.1,0.7,0c5,2.8,10.1,4.7,10.8,4.1c0,0,0-0.1,0-0.1c0-1.2-2.1-2.7-3.6-3.8s-2.8-2-2.6-3c0.2-0.8,1.1-1.1,1.4-1.2
		c2-0.6,10.4-1,10.8-1c0.3,0,0.7,0.2,0.8,0.5c0.6,2,2,4.9,3.1,5.1c0.4-0.4,0.1-2.8,0-4.2c-0.1-0.9-0.2-1.8-0.2-2.7
		c-0.1-0.5-0.3-0.9-0.7-1.2c-1.9-1.8-7.2-3.6-12.1-3.4C207.3,227.2,197.1,230.7,194.5,231.6L194.5,231.6z"></path><g id="Character_Male"><path class="st1" d="M129.2,150.1c-11.2,0.9-22.5-33.6-14.9-44.3c3.3-4.6,6-10.5,12.8-7.2c7.3-6.1,17.9-7.4,28-4.5
			c7.8,2.2,17.2,8.3,16.3,17.7c-0.3,3.4-2.9,6.7-6.3,6.9c-1.6,10.1-6.8,17-13.4,24.4c-4.4,5-10,8.9-16.2,11.3
			C132.2,155.4,129.2,150.1,129.2,150.1z"></path><path class="st0" d="M166.8,128.9c0,0,7.3,11.8,5.7,14.1s-6.8,0.6-6.8,0.6"></path><path class="st1" d="M169.2,145c-1.3,0-2.6-0.3-3.9-0.7l0.5-1.4c1.3,0.4,4.9,1.2,6-0.3c0.8-1.2-2.3-7.8-5.7-13.3l1.3-0.8
			c1.8,2.9,7.4,12.4,5.6,14.9C172.1,144.6,170.7,145.1,169.2,145z"></path><path class="st0" d="M165.5,113.6c4.7,4.1,3.1,12.4,2.9,17.9c-0.3,7.7-0.7,15.3-1.3,23c-0.4,4.9-13,4.6-15.2,3.1l1.4,19.2
			l-26.1-10.9l1.5-15.8c0,0,8.6,0.3,13.7-9.5s5.1-31.3,5.1-31.3S160.9,109.6,165.5,113.6L165.5,113.6z"></path><path class="st1" d="M154.2,177.9l-27.8-11.5l1.6-17.1h0.7c0.4,0,8.2,0.1,13.1-9.1c5-9.5,5-30.7,5-30.9v-0.8h0.8
			c0.6,0,13.3,0.3,18.2,4.3l0,0l0.2,0.1c4.2,3.7,3.7,10.2,3.4,15.6c-0.1,1-0.1,2-0.2,2.9c-0.3,7.6-0.7,15.3-1.3,23
			c-0.1,1-0.6,2.4-2.8,3.4c-3.4,1.6-9.4,1.6-12.3,0.8L154.2,177.9z M128,165.4l24.5,10.2l-1.5-19.6l1.3,0.9c1.4,1,8.4,1.4,12-0.3
			c1.2-0.6,1.9-1.3,2-2.2c0.6-7.7,1.1-15.4,1.3-22.9c0-0.9,0.1-1.9,0.2-3c0.4-4.9,0.8-11-2.7-14.2l0,0l-0.2-0.1
			c-3.8-3.2-13.8-3.9-16.7-4.1c0,4-0.4,22-5.2,30.8c-4.5,8.5-11.5,9.7-13.7,9.9L128,165.4z"></path><path class="st0" d="M151.9,133.4c-7.9-24.5-21.4,1.4-5.7,11.6"></path><path class="st1" d="M146.2,145.8c-0.1,0-0.3,0-0.4-0.1c-6-3.8-8.8-11-7-17.8c1-3.3,3-5.4,5.3-5.4h0.1c1.9,0,5.5,1.4,8.5,10.7
			c0.1,0.4-0.1,0.8-0.5,0.9c-0.4,0.1-0.8-0.1-0.9-0.5c-2.8-8.7-5.8-9.7-7-9.7l0,0c-1.6,0-3.1,1.7-3.9,4.3c-1.6,6.2,1,12.7,6.4,16.1
			c0.3,0.2,0.4,0.7,0.2,1C146.7,145.6,146.5,145.8,146.2,145.8z"></path><ellipse class="st1" transform="matrix(0.1217 -0.9926 0.9926 0.1217 17.138 275.1511)" cx="164" cy="127.9" rx="2.7" ry="1.1"></ellipse><path class="st1" d="M152,157.5c0,0-9.8-3.6-12-6.8c0.5,2.8,1.9,5.3,4.1,7.1c2.5,2.1,5.3,3.8,8.2,5.2L152,157.5z"></path></g><path class="st0" d="M165.1,145.6c0,0-4.6,0.5-4.9,2.5s4.6,2.5,4.6,2.5L165.1,145.6z"></path><path class="st1" d="M165.4,151.5l-0.8-0.1c-0.4,0-3.6-0.4-4.8-1.9c-0.3-0.4-0.5-1-0.4-1.5c0.4-2.5,4.7-3.1,5.6-3.1l0.9-0.1
		L165.4,151.5z M164.2,146.5c-1.5,0.3-3.2,0.9-3.3,1.7c0,0.1,0,0.3,0.1,0.4c0.9,0.7,1.9,1.1,3,1.2L164.2,146.5z"></path><path class="st0" d="M117,166.4c0,0,0.5-5.4,2.4-7.3s27.4-2.4,36.2,2.9s9.3,12.7,9.3,12.7L117,166.4z"></path><path class="st1" d="M164.9,175.4h-0.1l-47.9-8.3c-0.4-0.1-0.7-0.4-0.6-0.8c0-0.2,0.5-5.7,2.7-7.8c2.5-2.5,28.4-2.5,37.1,2.8
		c9,5.5,9.6,13,9.6,13.3C165.7,175,165.4,175.4,164.9,175.4C164.9,175.4,164.9,175.4,164.9,175.4L164.9,175.4z M117.8,165.7l46.1,8
		c-0.5-2.1-2.3-7.2-8.8-11.1c-8.9-5.4-33.7-4.4-35.2-3C118.7,160.8,118.1,164,117.8,165.7z"></path><path class="st0" d="M185.1,400.1c0,0-5.5,16.1-3,17.6s31.7,0,43.9-1.5s3-8.1-6.1-10.3c-4.8-1.1-9.5-2.5-14-4.4L185.1,400.1z"></path><path class="st1" d="M190.3,419.1c-4.5,0-7.7-0.2-8.6-0.7c-2.7-1.6,1-13.5,2.7-18.5c0.1-0.3,0.4-0.5,0.8-0.5l20.7,1.5
		c0.1,0,0.2,0,0.3,0.1c4.5,1.8,9.1,3.3,13.8,4.4c6.2,1.5,12.7,5,12.5,8.2c-0.1,1.9-2.3,3.1-6.5,3.6
		C218.4,417.9,201,419.1,190.3,419.1z M185.7,400.9c-2.7,8-4.2,15.5-3.2,16.2c2,1.2,30.2,0,43.4-1.6c4.8-0.6,5.2-1.8,5.2-2.2
		c0.1-1.7-5-5.1-11.4-6.6c-4.8-1.1-9.5-2.5-14-4.4L185.7,400.9z"></path><path class="st1" d="M205,280.2c0,0,73.5-2.2,95.5,9.5S261.6,407,261.6,407l-24.9-1.5c0,0,11-72.6,22.7-85.8c0,0-42.4,10-62.6,8.3
		S205,280.2,205,280.2z"></path><path class="st1" d="M261.6,407.7L261.6,407.7l-24.9-1.5c-0.2,0-0.4-0.1-0.5-0.3c-0.1-0.2-0.2-0.4-0.2-0.6
		c0.4-2.9,10.4-67.9,21.6-84.4c-8.7,2-43.3,9.3-60.8,7.9c-3.3-0.3-5.6-1.7-6.8-4.2c-5.9-11.6,13.6-43.5,14.4-44.8
		c0.1-0.2,0.4-0.4,0.6-0.4c3-0.1,74-2.1,95.9,9.6c2.3,1.3,3.9,3.5,4.5,6c3,10.5-3.3,32.6-18.8,65.7c-11.5,24.6-24,46.4-24.2,46.6
		C262.2,407.6,261.9,407.8,261.6,407.7z M237.6,404.8l23.6,1.4c3.7-6.5,49.4-87.3,42.6-110.8c-0.5-2.1-1.8-4-3.7-5.1
		c-20.7-11-88.8-9.6-94.7-9.5c-2.1,3.5-19.3,32.8-14.1,43c1,2,2.9,3.1,5.6,3.4c19.9,1.7,62-8.2,62.4-8.3c0.4-0.1,0.8,0.2,0.9,0.6
		c0.1,0.2,0,0.5-0.2,0.7C249.2,332.4,238.8,396.8,237.6,404.8L237.6,404.8z"></path><path class="st1" d="M150.2,281.7c0,0,73.3-2.9,95.3,8.8s-39.6,110.4-39.6,110.4l-24.9-1.5c0,0,11.7-65.7,23.5-78.9
		c0,0-42.4,10-62.6,8.3S150.2,281.7,150.2,281.7z"></path><path class="st1" d="M205.9,401.6L205.9,401.6l-24.9-1.5c-0.2,0-0.4-0.1-0.5-0.3c-0.1-0.2-0.2-0.4-0.1-0.6
		c0.5-2.6,11.1-61.4,22.3-77.6c-8.8,2-43.2,9.3-60.8,7.8c-3.3-0.3-5.6-1.7-6.9-4.2c-5.7-11.5,13.8-42.8,14.7-44.1
		c0.1-0.2,0.4-0.3,0.6-0.4c3-0.1,73.8-2.8,95.7,8.9c2.3,1.3,4,3.5,4.5,6.1c2.7,10.2-3.8,31.1-19.5,62
		c-11.6,22.9-24.2,43.1-24.3,43.4C206.5,401.5,206.2,401.6,205.9,401.6z M181.9,398.7l23.6,1.4c3.7-6,49.5-81,43.4-103.8
		c-0.5-2.2-1.8-4.1-3.8-5.2c-20.7-11-88.6-8.9-94.5-8.7c-2.1,3.4-19.4,32.2-14.4,42.3c1,2,2.9,3.1,5.6,3.4c19.9,1.7,62-8.2,62.4-8.3
		c0.3-0.1,0.6,0.1,0.8,0.3c0.2,0.3,0.1,0.6-0.1,0.9C194.3,333.1,183.3,391.1,181.9,398.7L181.9,398.7z"></path><path class="st0" d="M251.6,238.7c0,0,12.2-4.1,15.4-4.4s19.5,0.7,22.5,1.2s9.8,10.8,7.1,11s-7.1-3.7-9-3.4s-9.8,0.5-12.5,2.2
		s-19.1,5.1-19.1,5.1"></path><path class="st1" d="M256,251.1c-0.4,0-0.7-0.2-0.7-0.6c-0.1-0.4,0.2-0.8,0.6-0.9c4.5-0.9,16.7-3.7,18.8-5c2.3-1.5,7.8-1.9,11-2.2
		c0.7-0.1,1.4-0.1,1.7-0.1c1.1-0.1,2.6,0.7,4.4,1.6s3.5,1.9,4.6,1.8c-0.1-1.1-0.5-2.1-1.1-3c-1.8-3.1-4.7-6.3-5.9-6.5
		c-2.9-0.5-19.2-1.4-22.3-1.2s-15.1,4.3-15.2,4.4c-0.4,0.2-0.8,0-1-0.4c0,0,0,0,0-0.1c-0.1-0.4,0.1-0.8,0.5-0.9c0,0,0,0,0,0
		c0.5-0.2,12.3-4.2,15.6-4.4s19.5,0.7,22.7,1.2c2.9,0.5,8.4,8.3,8.3,11c0,0.8-0.5,1.4-1.3,1.4c-1.7,0.1-3.6-0.9-5.6-2
		c-1.3-0.7-2.8-1.5-3.5-1.4c-0.4,0.1-1,0.1-1.8,0.2c-2.9,0.2-8.4,0.7-10.4,1.9C272.6,247.6,257.8,250.7,256,251.1L256,251.1z"></path><path class="st2" d="M98.4,172.7c5.6-14.4,76.2-14.7,87,12.2c7.1,17.9,26.8,105.1,26.8,105.1c0,2.6-0.2,5.2-0.5,7.8
		c-0.5,2.9-5.9,6.4-5.9,6.4l-6.8-13.2c0,0,1,10.8,1,17.8c-23.6,9.9-59.4,4.4-59.4,4.4c-17-4.6-30.6-17.5-36.1-34.2
		C91.1,238,94,184.1,98.4,172.7z"></path><path class="st2" d="M147.3,185.6c0,0,10.8,80.4,28.8,86.7s87.2-6.6,87.2-6.6l-8.6-28.3l-37.1,3.7l-10.8-4.4l-7.3,3.4
		c0,0-8.8-42-14.7-54.7C176.9,167.9,142.9,157.1,147.3,185.6z"></path><path class="st0" d="M240.9,405.5c0,0-6.6,16.1-3.7,17.6c1.2,0.6,4.6,2.2,12.2,2c2.8-0.1,3.5-2.3,6.8-2.6c2.4-0.2,5.7,1.5,8.5,1.6
		c4.1,0.3,20,2.6,23.8-0.3s-3.9-8.3-12.2-11.7c-10.4-4.3-14.7-5.1-14.7-5.1L240.9,405.5z"></path><path class="st1" d="M280.4,426.1c-3.8,0-8.2-0.4-12.5-0.8c-1.4-0.1-2.5-0.3-3.3-0.3c-1.4-0.1-2.8-0.4-4.1-0.9
		c-1.4-0.5-2.8-0.7-4.3-0.8c-1.2,0.1-2.4,0.6-3.3,1.3c-1,0.8-2.3,1.2-3.6,1.3c-7.9,0.2-11.4-1.5-12.6-2.1
		c-3.2-1.6,1.2-13.5,3.3-18.5c0.1-0.3,0.4-0.5,0.8-0.5l20.8,1.5c0.3,0,4.6,0.9,14.9,5.2c6.3,2.6,13.2,6.6,13.6,10.2
		c0.1,1.1-0.3,2.2-1.3,2.8C287.4,425.6,284.3,426.1,280.4,426.1z M256.7,421.8c1.5,0.1,2.9,0.4,4.3,0.8c1.2,0.4,2.5,0.7,3.8,0.8
		c0.8,0,1.9,0.2,3.3,0.3c5.5,0.6,17.1,1.8,19.9-0.5c0.5-0.3,0.8-0.9,0.7-1.5c-0.3-2.3-5.6-6-12.7-9c-10.1-4.2-14.5-5.1-14.5-5.1
		l-20.1-1.4c-3.2,8.1-5,15.5-3.8,16.1s4.3,2.1,11.9,2c1-0.1,2-0.4,2.8-1.1c1.2-0.9,2.6-1.4,4-1.5
		C256.3,421.8,256.5,421.8,256.7,421.8z"></path><path class="st1" d="M191.9,274.9c-6.7,0-12.3-0.5-16-1.8c-18.3-6.4-28.9-84-29.3-87.3c-0.6-3.4-0.5-6.8,0.3-10.2
		c0.1-0.4,0.5-0.6,0.9-0.5c0.4,0.1,0.6,0.5,0.5,0.9c-0.8,3.1-0.8,6.4-0.2,9.6c0,0.2,2.8,20.3,7.6,41c6.4,27.1,13.6,42.7,20.7,45.2
		c16.6,5.8,78.1-5,86-6.5l-8.1-26.9l-36.5,3.6c-0.1,0-0.2,0-0.4-0.1l-10.4-4.3l-7,3.3c-0.4,0.2-0.8,0-1-0.4c0-0.1,0-0.1-0.1-0.2
		c0-0.2-3.6-17-7.6-32.3c-0.1-0.4,0.2-0.8,0.6-0.9c0.4-0.1,0.8,0.1,0.9,0.5c3.5,13.3,6.6,27.7,7.4,31.5l6.5-3c0.2-0.1,0.4-0.1,0.6,0
		l10.6,4.3l36.9-3.6c0.4,0,0.7,0.2,0.8,0.5l8.5,28.3c0.1,0.2,0,0.4-0.1,0.6c-0.1,0.2-0.3,0.3-0.5,0.3
		C261.2,266.9,218.3,274.9,191.9,274.9z"></path><line class="st3" x1="194.2" y1="243.6" x2="199.6" y2="240.1"></line><path class="st1" d="M194.2,244.3c-0.3,0-0.5-0.1-0.6-0.3c-0.2-0.3-0.1-0.8,0.2-1l5.4-3.4c0.4-0.2,0.8-0.1,1,0.2s0.1,0.8-0.2,1
		l-5.4,3.4C194.5,244.3,194.3,244.3,194.2,244.3z"></path><line class="st3" x1="217.7" y1="241.1" x2="211.8" y2="244"></line><path class="st1" d="M211.8,244.8c-0.3,0-0.5-0.2-0.7-0.4c-0.2-0.4,0-0.8,0.3-1l5.9-2.9c0.4-0.2,0.8,0,1,0.3c0.2,0.4,0,0.8-0.3,1
		c0,0,0,0,0,0l-5.9,2.9C212,244.8,211.9,244.8,211.8,244.8z"></path></g><g id="computer"><path class="st0" d="M287.7,249.9h49.9c4,0,7.3-6.2,7.5-13.8c0.1-6.6,0-24.7,0-27.7h-35.9c0,2.9-0.1,19.7-0.1,26.4
		s-1.8,9.9-5.5,9.9H292c-1.4,0-2.7,0.9-3.2,2.3L287.7,249.9L287.7,249.9z"></path><path class="st1" d="M337.5,250.7h-49.9c-0.4,0-0.8-0.3-0.8-0.7c0-0.1,0-0.2,0-0.3l1.1-2.9c0.6-1.7,2.2-2.8,4-2.8h11.5
		c1.2,0,4.8,0,4.8-9.2c0-6.5,0.1-23.3,0.1-26.4c0-0.4,0.3-0.7,0.8-0.7H345c0.4,0,0.7,0.3,0.8,0.7c0,3.3,0.1,21.1,0,27.7
		C345.6,244.3,342,250.7,337.5,250.7z M288.8,249.2h48.8c3.5,0,6.6-6,6.7-13c0.1-6.1,0-22.3,0-26.9h-34.4c0,4.4-0.1,19.5-0.1,25.6
		c0,7.1-2.1,10.7-6.3,10.7H292c-1.1,0-2.1,0.7-2.5,1.8L288.8,249.2z"></path><path class="st1" d="M320.5,249.9h17.1c4,0,7.3-6.2,7.5-13.8c0.1-6.6,0-24.7,0-27.7H342c0,2.9-0.1,19.7-0.1,26.4s-1.8,9.9-5.5,9.9
		h-11.5c-1.4,0-2.7,0.9-3.2,2.3L320.5,249.9z"></path><path class="st1" d="M337.6,250.7h-17.1c-0.2,0-0.5-0.1-0.6-0.3c-0.1-0.2-0.2-0.5-0.1-0.7l1.1-2.9c0.6-1.6,2.2-2.7,3.9-2.8h11.5
		c1.2,0,4.8,0,4.8-9.2c0-6.4,0.1-23,0.1-26.4c0-0.4,0.3-0.7,0.8-0.7h3.1c0.4,0,0.7,0.3,0.7,0.7c0,0,0,0,0,0c0,3.3,0.1,21.1,0,27.7
		C345.6,244.3,342,250.7,337.6,250.7z M321.6,249.2h16c3.5,0,6.6-6,6.7-13c0.1-6.1,0-22.3,0-26.9h-1.6c0,4.6-0.1,19.6-0.1,25.6
		c0,7.1-2.1,10.7-6.3,10.7h-11.5c-1.1,0-2.1,0.7-2.5,1.8L321.6,249.2z"></path><path class="st1" d="M259.6,144.7l-6.9,79.1c-0.4,3.4,2,6.6,5.4,7c0.3,0,0.5,0,0.8,0.1h134.4c3.9-0.1,7.1-3.2,7.4-7.1l6.9-79.1
		c0.5-3.4-2-6.6-5.4-7c-0.3,0-0.5-0.1-0.8-0.1H267C263.1,137.8,259.9,140.8,259.6,144.7z"></path><path class="st1" d="M393.2,231.6H258.9c-1.9,0-3.8-0.8-5.1-2.2c-1.4-1.5-2.1-3.6-1.9-5.7l6.9-79.1c0.4-4.3,3.9-7.6,8.2-7.8h134.4
		c1.9,0,3.8,0.8,5.1,2.2c1.4,1.5,2.1,3.6,1.9,5.7l-6.9,79.1C401,228.2,397.5,231.5,393.2,231.6z M267,138.4
		c-3.5,0.1-6.4,2.9-6.7,6.4l0,0l-6.9,79.1c-0.2,1.7,0.4,3.3,1.5,4.5c1,1.1,2.5,1.7,4,1.7h134.4c3.5-0.1,6.4-2.9,6.7-6.4l6.9-79.1
		c0.2-1.7-0.4-3.3-1.5-4.5c-1-1.1-2.5-1.7-4-1.7L267,138.4z M259.6,144.7L259.6,144.7z"></path><path class="st0" d="M259.3,144.4l-6.6,75.6c-0.4,3.3,1.9,6.3,5.2,6.7c0.2,0,0.5,0,0.7,0h130.1c3.7-0.1,6.8-3,7.1-6.8l6.6-75.6
		c0.4-3.3-1.9-6.3-5.2-6.7c-0.2,0-0.5,0-0.7,0H266.4C262.7,137.8,259.6,140.7,259.3,144.4z"></path><path class="st1" d="M388.7,227.4H258.6c-1.9,0-3.6-0.8-4.9-2.1c-1.3-1.5-2-3.5-1.8-5.4l6.6-75.6l0,0c0.4-4.1,3.7-7.3,7.8-7.4
		h130.1c1.9,0,3.6,0.8,4.9,2.1c1.3,1.5,2,3.5,1.8,5.4l-6.6,75.6C396.2,224.1,392.8,227.3,388.7,227.4z M260,144.4l-6.6,75.6
		c-0.2,1.6,0.3,3.1,1.4,4.3c1,1.1,2.3,1.6,3.8,1.6h130.1c3.3-0.1,6.1-2.7,6.4-6.1l6.6-75.6c0.2-1.6-0.3-3.1-1.4-4.3
		c-1-1.1-2.4-1.7-3.8-1.6H266.4C263,138.5,260.3,141.1,260,144.4z"></path><path class="st0" d="M253.8,207.2l-1.1,12.7c-0.4,3.3,1.9,6.3,5.2,6.7c0.2,0,0.5,0,0.7,0h130.1c3.7-0.1,6.8-3,7.1-6.8l1.1-12.7
		H253.8z"></path><path class="st1" d="M388.7,227.4H258.6c-1.9,0-3.6-0.8-4.9-2.1c-1.3-1.5-2-3.5-1.8-5.4l1.1-12.7c0-0.4,0.4-0.7,0.8-0.7h143.1
		c0.4,0,0.7,0.3,0.7,0.8c0,0,0,0,0,0.1l-1.1,12.7C396.2,224.1,392.8,227.3,388.7,227.4z M254.5,208l-1.1,12
		c-0.2,1.6,0.3,3.1,1.4,4.3c1,1.1,2.3,1.6,3.8,1.6h130.1c3.3-0.1,6.1-2.7,6.4-6.1l1-11.9L254.5,208z"></path><path class="st1" d="M324.9,213c-2.2,0.1-4,1.8-4.2,4c-0.1,1,0.2,2.1,0.9,2.9c0.6,0.7,1.5,1.1,2.5,1.1c2.2-0.1,4-1.8,4.2-4
		c0.1-1-0.2-2.1-0.9-2.9C326.7,213.4,325.8,213,324.9,213L324.9,213z"></path><path class="st4" d="M324.1,221.7c-1.1,0-2.2-0.5-3-1.3c-0.8-0.9-1.3-2.2-1.1-3.4c0.2-2.6,2.3-4.6,4.9-4.7h0.1
		c1.1,0,2.2,0.5,2.9,1.3c0.8,0.9,1.2,2.2,1,3.4C328.8,219.6,326.7,221.6,324.1,221.7z M324.8,213.8c-1.8,0.1-3.2,1.5-3.3,3.3
		c-0.1,0.8,0.2,1.7,0.7,2.3c0.5,0.5,1.2,0.8,1.9,0.8c1.8-0.1,3.3-1.5,3.4-3.3c0.1-0.8-0.2-1.7-0.7-2.3
		C326.3,214.1,325.6,213.8,324.8,213.8L324.8,213.8z"></path><path class="st1" d="M324.8,245.5H292c-0.4,0-0.8-0.3-0.8-0.8s0.3-0.8,0.8-0.8h32.8c0.4,0,0.8,0.3,0.8,0.8S325.2,245.5,324.8,245.5
		L324.8,245.5z"></path></g><g id="floor"><path class="st1" d="M473.5,388.5H68.8c-0.5-0.1-0.8-0.5-0.8-1c0-0.4,0.4-0.7,0.8-0.8h404.7c0.5,0.1,0.8,0.5,0.8,1
		C474.2,388.1,473.9,388.4,473.5,388.5z"></path></g><g id="plant"><path class="st1" d="M437.8,363.1l-6.4,35.2c-0.9,4.8,2.3,9.4,7.2,10.3c0.5,0.1,1,0.1,1.6,0.1h8.1c4.9,0,8.9-4,8.9-8.9
		c0-0.5,0-1.1-0.1-1.6l-6.4-35.2l8.2-7.7h-29.3L437.8,363.1z"></path><path class="st1" d="M448.3,409.5h-8.1c-5.3,0-9.6-4.3-9.6-9.6c0-0.6,0.1-1.1,0.2-1.7l6.3-34.8l-8-7.4c-0.2-0.2-0.3-0.5-0.2-0.8
		c0.1-0.3,0.4-0.5,0.7-0.5h29.3c0.3,0,0.6,0.2,0.7,0.5c0.1,0.3,0,0.6-0.2,0.8l-7.9,7.4l6.3,34.8c0.9,5.2-2.5,10.2-7.8,11.2
		C449.4,409.5,448.8,409.5,448.3,409.5L448.3,409.5z M431.5,356.2l6.8,6.4c0.2,0.2,0.3,0.4,0.2,0.7l-6.4,35.2
		c-0.8,4.4,2.1,8.6,6.5,9.4c0.5,0.1,1,0.1,1.5,0.1h8.1c4.5,0,8.1-3.6,8.1-8.1c0-0.5,0-1-0.1-1.5l-6.4-35.2c0-0.3,0-0.5,0.2-0.7
		l6.8-6.4H431.5z"></path><path class="st1" d="M442.9,388.1c-0.5,0-0.9-0.4-0.9-0.9c0-42.3,0.1-50.9,0.3-52.8h-0.1c0.1-21-10.9-48.1-11.1-48.4
		c-0.2-0.5,0-1,0.5-1.1c0.4-0.2,1,0,1.1,0.5c0,0,0,0,0,0c0.1,0.3,11.3,27.8,11.2,49.1c0,0.1,0,0.1,0,0.2c-0.2,1.9-0.2,38.6-0.2,52.6
		C443.8,387.7,443.4,388.1,442.9,388.1C443,388.1,442.9,388.1,442.9,388.1z"></path><path class="st1" d="M440,347c-3.4,0-12.2-6.6-17.1-11.2c-2.7-2.6-4.4-4.8-5-6.6c-0.8-1.8-0.3-3.9,1.1-5.3
		c2.8-2.9,8.2-3.6,13.7,1.6s11.3,16.1,8.2,21.1c-0.2,0.2-0.4,0.4-0.7,0.4L440,347z M424.4,323.4c-1.6,0-3.1,0.6-4.2,1.7
		c-1,0.9-1.3,2.3-0.7,3.5c0.6,1.6,2.1,3.5,4.6,5.9c5.4,5.2,12.9,10.3,15.5,10.7c1.8-4.1-2.9-13.5-8.2-18.5
		C428.9,324.4,426.5,323.4,424.4,323.4L424.4,323.4z"></path><path class="st1" d="M442.9,357.9c-0.5,0-0.9-0.4-0.9-0.9c0-14-14.1-26.7-14.2-26.8c-0.4-0.3-0.4-0.9-0.1-1.2c0,0,0,0,0,0
		c0.3-0.4,0.9-0.4,1.2-0.1c0.6,0.5,14.8,13.4,14.8,28.1C443.8,357.5,443.4,357.9,442.9,357.9C442.9,357.9,442.9,357.9,442.9,357.9z"></path><path class="st1" d="M445.7,340.9h-0.1c-0.1,0-0.3,0-0.4,0c-0.2,0-0.4-0.2-0.6-0.4c-2.8-4.1,4.5-22,11.9-29
		c1.3-1.2,2.6-2.3,4.1-3.3c0.3-0.2,0.6-0.2,0.9-0.1c1.2,0.6,2.2,0.8,2.7,0.5c0.2-0.1,0.5-0.8,0.4-2.1c0-0.4,0.2-0.7,0.5-0.8
		c5.6-2.5,10.7-2.4,13.2,0.2c3.6,3.8,0.3,11.8-8.2,19.9c-1.6,1.5-3.5,3.1-5.6,4.8c-0.4,0.3-0.9,0.2-1.2-0.1
		c-2.1-2.3-3.1-2.8-3.4-2.8c-0.1,0.3-0.1,1.5,1,4.8c0.1,0.4,0,0.8-0.3,1C455.5,337,448.8,340.9,445.7,340.9z M461.1,309.9
		c-1.2,0.9-2.4,1.8-3.5,2.8c-7.4,7-13.2,22.8-11.9,26.4c2.2-0.1,7.5-2.9,13.3-6.9c-1.3-3.9-1.3-5.9,0.1-6.4c1.1-0.4,2.6,0.4,4.8,2.7
		c1.8-1.4,3.4-2.8,4.8-4.1c7.5-7.2,11-14.5,8.1-17.5c-1.8-1.9-6.1-1.9-10.7-0.1c0,1.5-0.4,2.6-1.2,3.1
		C464.1,310.6,462.8,310.6,461.1,309.9L461.1,309.9z"></path><path class="st1" d="M442.9,350.8L442.9,350.8c-0.5,0-0.9-0.4-0.9-0.9c0,0,0,0,0,0c0-7.2,4.9-16,14.4-26.3
		c4.4-4.7,9.1-9.1,14.1-13.2c0.4-0.3,0.9-0.2,1.2,0.2c0.3,0.4,0.2,0.9-0.1,1.2c-0.3,0.2-27.7,22-27.8,38.2
		C443.8,350.4,443.4,350.8,442.9,350.8z"></path><path class="st1" d="M445.4,354.6c-0.3,0-0.6,0-0.9-0.1c-0.2-0.1-0.4-0.3-0.5-0.5c-1.4-3.5,1.3-7.8,4.2-10.6c3.5-3.3,7-2.8,8.8-1
		c2.4,2.5,0,5.4-2.4,7.6l0,0C451.9,352.6,447.8,354.6,445.4,354.6z M453.4,342.7c-1.5,0.1-3,0.8-4,2c-3,2.9-4.5,6-4,8.2
		c1.4,0,5.1-1.3,7.9-4l0,0c3.8-3.6,2.8-4.7,2.3-5.2C455.1,343.1,454.3,342.7,453.4,342.7L453.4,342.7z M453.9,349.4L453.9,349.4z"></path><path class="st1" d="M442.9,360.6c-0.5,0-0.9-0.4-0.9-0.9c0,0,0,0,0,0c0-6.4,6.1-11.8,6.3-12c0.4-0.3,0.9-0.3,1.2,0.1c0,0,0,0,0,0
		c0.3,0.4,0.3,0.9-0.1,1.2c-0.1,0-5.7,5.2-5.7,10.7C443.8,360.2,443.4,360.6,442.9,360.6C442.9,360.6,442.9,360.6,442.9,360.6z"></path><path class="st1" d="M442.7,330.7c-4.5,0-12.5-17.8-15.1-25.3l-0.2-0.5c-0.1-0.3,0-0.7,0.2-0.9c0.8-0.8,2.1-2.2,1.8-3.5l0,0
		c-0.3-1.2-2.1-1.6-3.2-1.7c-0.4,0-0.7-0.3-0.8-0.7c-2.3-9.7-1.4-16.2,2.6-17.6c2.2-0.7,4.5-0.4,6.5,0.7c5.1,2.6,9.3,8.9,11.7,17.4
		c2.5,8.9,2.5,25.7-0.9,30.6c-0.5,0.9-1.4,1.5-2.5,1.6L442.7,330.7z M429.2,304.9c4.1,11.7,11.3,24.1,13.4,24.1l0,0
		c0.5-0.1,0.9-0.4,1.1-0.8c3.1-4.4,3-20.8,0.6-29.1c-3.2-11.4-8.6-15.1-10.8-16.3c-1.5-0.9-3.3-1.1-5-0.6c-2.9,1.1-3.5,6.8-1.6,15
		c3,0.5,3.9,1.9,4.1,3C431.5,301.5,430.8,303.2,429.2,304.9z"></path><path class="st0" d="M434.9,391h-0.2c-0.5-0.1-0.8-0.5-0.7-1l5.1-24c0.1-0.5,0.6-0.8,1-0.7c0.5,0.1,0.8,0.6,0.7,1l0,0l-5.1,23.9
		C435.7,390.7,435.3,391,434.9,391z"></path></g><g id="desk"><path class="st0" d="M325.9,254.2c0,0-19.3,171.6-15.2,172.6s26.4-172.6,26.4-172.6H325.9z"></path><path class="st1" d="M310.7,427.5c-0.1,0-0.1,0-0.2,0c-1.3-0.3-3.2-0.8,5.5-87.5c4.3-42.5,9.1-85.5,9.1-85.9c0-0.4,0.4-0.7,0.8-0.7
		h11.2c0.2,0,0.4,0.1,0.6,0.2c0.1,0.2,0.2,0.4,0.2,0.6c0,0.4-5.5,42.9-11.5,85.2c-12.1,85.8-14.3,87.4-15.1,87.9
		C311.1,427.5,310.9,427.5,310.7,427.5z M311.2,426.3L311.2,426.3z M326.6,255c-7.1,63.5-16.8,157.3-15.7,170
		c4.1-12.2,17.1-106.2,25.3-170H326.6z"></path><path class="st0" d="M399.5,254.2c0,0,19.3,171.6,15.2,172.6s-26.4-172.6-26.4-172.6H399.5z"></path><path class="st1" d="M414.7,427.5c-0.2,0-0.4-0.1-0.5-0.2c-0.8-0.6-3-2.1-15.1-87.9c-5.9-42.3-11.4-84.7-11.5-85.1
		c0-0.2,0-0.4,0.2-0.6c0.1-0.2,0.4-0.3,0.6-0.2h11.2c0.4,0,0.7,0.3,0.7,0.7c0,0.4,4.9,43.4,9.1,85.9c8.7,86.7,6.8,87.2,5.5,87.5
		L414.7,427.5z M389.2,255c8.2,63.9,21.2,157.9,25.3,170c1.1-12.7-8.5-106.5-15.7-170H389.2z"></path><path class="st0" d="M423,248.8c0,4.5-3.6,8.1-8.1,8.1c0,0,0,0,0,0H172.4c-4.5,0-8.1-3.6-8.1-8.1L423,248.8z"></path><path class="st1" d="M414.9,257.6H172.4c-4.9,0-8.9-4-8.9-8.9c0-0.4,0.3-0.8,0.8-0.8H423c0.4,0,0.8,0.3,0.8,0.8
		C423.8,253.7,419.8,257.6,414.9,257.6C414.9,257.6,414.9,257.6,414.9,257.6L414.9,257.6z M165,249.5c0.4,3.8,3.6,6.6,7.4,6.6h242.5
		c3.8,0,7-2.9,7.4-6.6L165,249.5z"></path><path class="st0" d="M423,248.8c0,4.5-3.6,8.1-8.1,8.1c0,0,0,0,0,0h-99.7c-4.5,0-8.1-3.6-8.1-8.1L423,248.8z"></path><path class="st1" d="M414.9,257.6h-99.7c-4.9,0-8.9-4-8.9-8.9c0-0.4,0.3-0.7,0.7-0.8h116c0.4,0,0.8,0.3,0.8,0.8
		C423.8,253.7,419.8,257.6,414.9,257.6C414.9,257.6,414.9,257.6,414.9,257.6L414.9,257.6z M307.9,249.5c0.4,3.8,3.6,6.6,7.4,6.6
		h99.7c3.8,0,7-2.9,7.4-6.6H307.9z"></path></g><g id="chair"><path class="st1" d="M175.3,326.1c0,0-5.2,88.4-9.6,94.3c-4.4-5.9-9.6-94.3-9.6-94.3H175.3z"></path><path class="st1" d="M110.9,427.8c0,0,29.7-26.4,54.8-28.2c25.1,1.8,54.8,28.2,54.8,28.2H110.9z"></path><path class="st1" d="M211.1,326.1c0,0-24.7,13.9-45.4,14.8c-20.8-0.9-45.4-14.8-45.4-14.8L211.1,326.1z"></path><path class="st0" d="M242.6,343.2V343C242.6,343.1,242.6,343.1,242.6,343.2C242.6,343.2,242.6,343.2,242.6,343.2z"></path><path class="st1" d="M242.6,344h-0.1c-0.3-0.1-0.5-0.3-0.6-0.6h0.1c0,0.1,0.1,0.2,0.2,0.3l0.3-0.4h0.2h-0.2l0.1-0.1l-0.5-0.3
		c-0.1,0.1-0.1,0.3-0.1,0.5l0,0v-0.2c-0.1-0.4,0.2-0.8,0.6-0.8c0.2,0,0.4,0,0.5,0.1c0.4,0.3,0.5,0.8,0.2,1.2
		C243.1,343.9,242.9,344,242.6,344z"></path><path class="st0" d="M196.8,320.7c-9-53.5-34.4-137.7-48.1-137.7H59.8c-3.5,1.2-6.6,3.6-8.6,6.7c14.3,22.9,32.9,91.4,39.8,135
		c0.7,4.5,4.6,7.8,9.1,7.8h155.1c3.2,0,5.9-2.6,5.9-5.9l0,0c0-3.2-2.6-5.9-5.9-5.9c0,0,0,0,0,0L196.8,320.7z"></path><path class="st1" d="M255.3,333.2H100.1c-4.9,0-9.1-3.6-9.9-8.4c-8.6-54.5-28-116.1-39.6-134.8c-0.1-0.2-0.1-0.5,0-0.8
		c2.2-3.3,5.4-5.8,9.1-7.1h0.2h88.9c14.9,0,40.4,89,48.7,137.8h57.8c3.7-0.1,6.7,2.7,6.9,6.4c0.1,3.7-2.7,6.7-6.4,6.9
		C255.6,333.2,255.5,333.2,255.3,333.2L255.3,333.2z M52.1,189.6c11.7,19.2,31,80.6,39.6,134.9c0.6,4.1,4.2,7.2,8.4,7.1h155.2
		c2.8,0.1,5.2-2.1,5.3-4.9c0.1-2.8-2.1-5.2-4.9-5.3c-0.2,0-0.3,0-0.5,0h-58.4c-0.4,0-0.7-0.3-0.7-0.6c-5.3-30.1-12.8-59.8-22.3-88.9
		c-10-30.2-19.4-48.3-25-48.3H59.9C56.8,184.8,54,186.9,52.1,189.6z"></path><path class="st0" d="M178.9,325.9c-6.3-47.4-32.2-136.6-45.6-136.6H53"></path><path class="st1" d="M178.9,326.6c-0.4,0-0.7-0.3-0.7-0.6c-6.3-47.3-32.2-135.9-44.8-135.9H53c-0.4,0-0.8-0.3-0.8-0.8
		s0.3-0.8,0.8-0.8h80.3c14.8,0,40.5,93.2,46.3,137.2c0.1,0.4-0.2,0.8-0.6,0.8c0,0,0,0,0,0L178.9,326.6z"></path><path class="st1" d="M233.5,270.1c0,0,7.4-2.5,10.8,6.8c4.2,11.8-7.5,43.9-7.5,43.9h8.8c0,0,6.5-20.5,6.8-31.1s-1-18.7-5.7-20.5
		S233.5,270.1,233.5,270.1z"></path><path class="st0" d="M248.4,320.7c0,0,20.5-56.4-2.9-56.4h-61.3l1.5,5.7h56.8c16.8,0-0.6,50.7-0.6,50.7L248.4,320.7z"></path><path class="st1" d="M248.4,321.5H242c-0.2,0-0.5-0.1-0.6-0.3c-0.1-0.2-0.2-0.4-0.1-0.7c0.1-0.4,12.8-37.6,5.8-47.4
		c-1-1.5-2.7-2.3-4.5-2.2h-56.9c-0.3,0-0.6-0.2-0.7-0.6l-1.5-5.7c-0.1-0.2,0-0.5,0.1-0.6c0.1-0.2,0.4-0.3,0.6-0.3h61.3
		c3.5-0.2,6.9,1.5,8.9,4.4c3.9,5.5,4.1,16.1,0.8,31.6c-1.6,7.3-3.6,14.4-6.1,21.4C249,321.3,248.8,321.5,248.4,321.5z M243,320h4.9
		c1.6-4.6,13.4-39.5,5.2-51.1c-1.7-2.5-4.6-3.9-7.6-3.7h-60.3l1.1,4.2h56.2c2.3-0.1,4.4,1,5.7,2.9C255.1,281.8,245,313.8,243,320z"></path><path class="st1" d="M133.3,190.1c-0.4,0-0.8-0.3-0.8-0.7c0-0.2,0.1-0.5,0.3-0.6c0.4-0.3,9.9-7.6,16.1-6.5c0.4,0.1,0.7,0.5,0.6,0.9
		s-0.5,0.7-0.9,0.6l0,0c-5.5-0.9-14.8,6.1-14.9,6.2C133.6,190,133.5,190.1,133.3,190.1z"></path><path class="st0" d="M128.2,422.4c-0.5,0-0.9-0.4-0.9-0.9c0-0.3,0.2-0.6,0.4-0.8c22.4-13.9,34.9-16.9,35.4-17
		c0.5-0.1,0.9,0.2,1,0.7c0.1,0.5-0.2,0.9-0.7,1c-0.1,0-12.9,3.1-34.9,16.8C128.6,422.4,128.4,422.4,128.2,422.4z"></path></g></svg>